<svg
  xmlns="http://www.w3.org/2000/svg"
  width="24"
  height="24"
  viewBox="0 0 24 24"
  fill="none"
>
  <path
    d="M11.8004 0.999912C10.1314 0.999469 9.05199 0.999182 8.14584 1.29361C6.31922 1.88711 4.88711 3.31922 4.29361 5.14584C3.99918 6.05199 3.99947 7.13137 3.99991 8.80038L3.99995 21.9999C3.99995 22.3905 4.22729 22.7453 4.58209 22.9085C4.93689 23.0716 5.35423 23.0134 5.65074 22.7592L7.44441 21.2218C8.37984 20.42 9.03958 19.8554 9.5933 19.4494C10.1369 19.0508 10.5195 18.8503 10.8813 18.745C11.6119 18.5321 12.388 18.5321 13.1186 18.745C13.4804 18.8503 13.863 19.0508 14.4066 19.4494C14.9603 19.8554 15.6201 20.42 16.5555 21.2218L18.3492 22.7592C18.6457 23.0134 19.063 23.0716 19.4178 22.9085C19.7726 22.7453 19.9999 22.3905 19.9999 21.9999L20 8.80038C20.0004 7.13138 20.0007 6.05199 19.7063 5.14584C19.1128 3.31922 17.6807 1.88711 15.854 1.29361C14.9479 0.999182 13.8685 0.999469 12.1995 0.999912H11.8004Z"
    fill="currentcolor"
  />
</svg>
