<svg
  xmlns="http://www.w3.org/2000/svg"
  width="24"
  height="24"
  viewBox="0 0 24 24"
  fill="none"
>
  <path
    fill-rule="evenodd"
    clip-rule="evenodd"
    d="M1.8501 12.0001C1.8501 6.39441 6.39441 1.8501 12.0001 1.8501C17.6058 1.8501 22.1501 6.39441 22.1501 12.0001C22.1501 17.6058 17.6058 22.1501 12.0001 22.1501C6.39441 22.1501 1.8501 17.6058 1.8501 12.0001ZM13 7.90012C13 7.34784 12.5523 6.90012 12 6.90012C11.4477 6.90012 11 7.34784 11 7.90012V12.8166C11 13.3294 11.262 13.8067 11.6947 14.0821L14.5068 15.8716C14.9728 16.1681 15.5909 16.0308 15.8874 15.5648C16.1839 15.0989 16.0465 14.4808 15.5806 14.1843L13 12.5421V7.90012Z"
    fill="currentcolor"
  />
</svg>
