<svg
  xmlns="http://www.w3.org/2000/svg"
  width="24"
  height="24"
  viewBox="0 0 24 24"
  fill="none"
>
  <path
    fill-rule="evenodd"
    clip-rule="evenodd"
    d="M15.5684 2.70594C14.7233 2.43135 13.813 2.43135 12.9679 2.70594C12.4262 2.88196 11.969 3.19176 11.5126 3.57923C11.0721 3.95312 10.5716 4.45369 9.96149 5.0638L5.0638 9.96148C4.4537 10.5716 3.95312 11.0721 3.57923 11.5126C3.19176 11.969 2.88196 12.4262 2.70594 12.9679C2.43135 13.813 2.43135 14.7233 2.70594 15.5684C2.88196 16.1101 3.19176 16.5673 3.57923 17.0237C3.95312 17.4642 4.45369 17.9647 5.0638 18.5748L5.39929 18.9103C5.69798 19.209 5.96786 19.4789 6.21266 19.7169C6.39933 19.8984 6.64944 20 6.90981 20H21C21.5523 20 22 19.5523 22 19C22 18.4477 21.5523 18 21 18H14.9747L18.9362 14.0386C19.5463 13.4284 20.0469 12.9279 20.4208 12.4874C20.8082 12.031 21.118 11.5738 21.2941 11.0321C21.5686 10.187 21.5686 9.27669 21.2941 8.43161C21.118 7.88986 20.8082 7.43267 20.4208 6.97625C20.0469 6.53583 19.5463 6.03527 18.9362 5.42518L18.5748 5.0638C17.9647 4.45369 17.4642 3.95312 17.0237 3.57923C16.5673 3.19176 16.1101 2.88196 15.5684 2.70594ZM12.6538 17.4925C12.4696 17.6767 12.3011 17.8452 12.1448 18H7.31888C7.16257 17.8452 6.9941 17.6767 6.80992 17.4925L6.5075 17.1901C5.86069 16.5433 5.41866 16.1001 5.10391 15.7294C4.79675 15.3676 4.66999 15.141 4.60805 14.9504C4.46398 14.507 4.46398 14.0293 4.60805 13.5859C4.66999 13.3953 4.79675 13.1687 5.10391 12.8069C5.41865 12.4362 5.86069 11.993 6.5075 11.3462L7.42886 10.4248L13.5752 16.5711L12.6538 17.4925Z"
    fill="currentcolor"
  />
</svg>
