<svg
  xmlns="http://www.w3.org/2000/svg"
  width="24"
  height="24"
  viewBox="0 0 24 24"
  fill="none"
>
  <path
    d="M12.5264 3.05229C10.7981 1.9824 8.6912 1.71324 6.74945 2.31425L5.90566 2.57543C5.74598 2.23543 5.40049 2 5 2C4.44772 2 4 2.44772 4 3V21C4 21.5523 4.44772 22 5 22C5.55228 22 6 21.5523 6 21V14.7471C6.17433 14.7001 6.33455 14.6423 6.45765 14.5953C6.5317 14.567 6.60218 14.5388 6.6579 14.5164L6.68429 14.5059C6.7154 14.4934 6.73958 14.4838 6.75975 14.476L6.78292 14.4673L6.78949 14.4649L6.79124 14.4643C8.30501 13.9532 9.96573 14.1141 11.353 14.9068C13.1781 15.9498 15.3541 16.189 17.3623 15.5674L18.6717 15.1621C19.4615 14.9176 20 14.1872 20 13.3604V4.48517C20 4.21806 19.9359 3.90783 19.7307 3.63126C19.5238 3.35241 19.2477 3.20786 19.0074 3.13947C18.5843 3.01911 18.1496 3.09847 17.8905 3.15942C17.5923 3.22955 17.2987 3.33477 17.0786 3.41853C16.9965 3.44976 16.9166 3.48117 16.8504 3.50719L16.7875 3.53188C16.7479 3.54735 16.7171 3.55922 16.6924 3.56837C16.6713 3.57618 16.6614 3.57953 16.6593 3.58023C16.6589 3.58036 16.6588 3.58041 16.6593 3.58023C15.2702 4.01021 13.7628 3.8177 12.5264 3.05229Z"
    fill="currentcolor"
  />
</svg>
