<svg
  xmlns="http://www.w3.org/2000/svg"
  width="24"
  height="24"
  viewBox="0 0 24 24"
  fill="none"
>
  <path
    fill-rule="evenodd"
    clip-rule="evenodd"
    d="M8.35719 4H15.6428C16.7266 3.99999 17.6007 3.99998 18.3086 4.05782C19.0375 4.11737 19.6777 4.24318 20.27 4.54497C21.2108 5.02433 21.9757 5.78924 22.455 6.73005C22.7568 7.32234 22.8826 7.96253 22.9422 8.69138C23 9.39923 23 10.2733 23 11.3571V12.6428C23 13.7266 23 14.6008 22.9422 15.3086C22.8826 16.0375 22.7568 16.6777 22.455 17.27C21.9757 18.2108 21.2108 18.9757 20.27 19.455C19.6777 19.7568 19.0375 19.8826 18.3086 19.9422C17.6007 20 16.7266 20 15.6428 20H8.35722C7.27342 20 6.39926 20 5.69138 19.9422C4.96253 19.8826 4.32234 19.7568 3.73005 19.455C2.78924 18.9757 2.02434 18.2108 1.54497 17.27C1.24318 16.6777 1.11737 16.0375 1.05782 15.3086C0.999983 14.6007 0.99999 13.7266 1 12.6428V11.3572C0.99999 10.2734 0.999983 9.39926 1.05782 8.69138C1.11737 7.96253 1.24318 7.32234 1.54497 6.73005C2.02434 5.78924 2.78924 5.02433 3.73005 4.54497C4.32234 4.24318 4.96253 4.11737 5.69138 4.05782C6.39925 3.99998 7.27341 3.99999 8.35719 4ZM6 8C5.44772 8 5 8.44772 5 9C5 9.55229 5.44772 10 6 10H6.01C6.56229 10 7.01 9.55229 7.01 9C7.01 8.44772 6.56229 8 6.01 8H6ZM10 8C9.44772 8 9 8.44772 9 9C9 9.55229 9.44772 10 10 10H10.01C10.5623 10 11.01 9.55229 11.01 9C11.01 8.44772 10.5623 8 10.01 8H10ZM14 8C13.4477 8 13 8.44772 13 9C13 9.55229 13.4477 10 14 10H14.01C14.5623 10 15.01 9.55229 15.01 9C15.01 8.44772 14.5623 8 14.01 8H14ZM18 8C17.4477 8 17 8.44772 17 9C17 9.55229 17.4477 10 18 10H18.01C18.5623 10 19.01 9.55229 19.01 9C19.01 8.44772 18.5623 8 18.01 8H18ZM6 11C5.44772 11 5 11.4477 5 12C5 12.5523 5.44772 13 6 13H6.01C6.56229 13 7.01 12.5523 7.01 12C7.01 11.4477 6.56229 11 6.01 11H6ZM10 11C9.44772 11 9 11.4477 9 12C9 12.5523 9.44772 13 10 13H10.01C10.5623 13 11.01 12.5523 11.01 12C11.01 11.4477 10.5623 11 10.01 11H10ZM14 11C13.4477 11 13 11.4477 13 12C13 12.5523 13.4477 13 14 13H14.01C14.5623 13 15.01 12.5523 15.01 12C15.01 11.4477 14.5623 11 14.01 11H14ZM18 11C17.4477 11 17 11.4477 17 12C17 12.5523 17.4477 13 18 13H18.01C18.5623 13 19.01 12.5523 19.01 12C19.01 11.4477 18.5623 11 18.01 11H18ZM8 14C7.44771 14 7 14.4477 7 15C7 15.5523 7.44771 16 8 16H16C16.5523 16 17 15.5523 17 15C17 14.4477 16.5523 14 16 14H8Z"
    fill="currentcolor"
  />
</svg>
