<svg
  xmlns="http://www.w3.org/2000/svg"
  width="24"
  height="24"
  viewBox="0 0 24 24"
  fill="none"
>
  <path
    d="M2.00004 16.4147C1.99974 16.034 1.99948 15.7061 2.05773 15.4133C2.29445 14.2232 3.22474 13.2929 4.41482 13.0562C4.70767 12.9979 5.03551 12.9982 5.4162 12.9985L5.50009 12.9985L5.58397 12.9985C5.96467 12.9982 6.2925 12.9979 6.58536 13.0562C7.77543 13.2929 8.70572 14.2232 8.94244 15.4133C9.0007 15.7061 9.00043 16.034 9.00013 16.4147V18.5824C9.00043 18.9631 9.0007 19.291 8.94244 19.5838C8.70572 20.7739 7.77543 21.7042 6.58536 21.9409C6.29252 21.9991 5.9647 21.9989 5.58402 21.9986L5.50009 21.9985L5.41619 21.9986C5.03551 21.9989 4.70766 21.9991 4.41482 21.9409C3.22474 21.7042 2.29445 20.7739 2.05773 19.5838C1.99948 19.291 1.99974 18.9631 2.00004 18.5824V16.4147Z"
    fill="currentcolor"
  />
  <path
    d="M2.00009 6.15999C2.00007 5.63285 2.00005 5.17808 2.03066 4.80351C2.06296 4.40816 2.13427 4.01495 2.32707 3.63657C2.61469 3.07208 3.07363 2.61314 3.63812 2.32552C4.0165 2.13272 4.40971 2.06141 4.80506 2.02911C5.17962 1.9985 5.63437 1.99852 6.1615 1.99854H17.8386C18.3658 1.99852 18.8206 1.9985 19.1951 2.02911C19.5905 2.06141 19.9837 2.13272 20.3621 2.32552C20.9265 2.61314 21.3855 3.07208 21.6731 3.63657C21.8659 4.01495 21.9372 4.40816 21.9695 4.80351C22.0001 5.17808 22.0001 5.63283 22.0001 6.15997V6.8371C22.0001 7.36424 22.0001 7.819 21.9695 8.19357C21.9372 8.58891 21.8659 8.98213 21.6731 9.36051C21.3855 9.92499 20.9265 10.3839 20.3621 10.6716C19.9837 10.8644 19.5905 10.9357 19.1951 10.968C18.8205 10.9986 18.3658 10.9986 17.8386 10.9985H6.16157C5.63442 10.9986 5.17963 10.9986 4.80506 10.968C4.40971 10.9357 4.0165 10.8644 3.63812 10.6716C3.07363 10.3839 2.61469 9.925 2.32707 9.36051C2.13427 8.98213 2.06296 8.58891 2.03066 8.19357C2.00005 7.81899 2.00007 7.36423 2.00009 6.83709L2.00009 6.15999Z"
    fill="currentcolor"
  />
  <path
    d="M11.0001 17.16C11.0001 16.6329 11.0001 16.1781 11.0307 15.8035C11.063 15.4082 11.1343 15.0149 11.3271 14.6366C11.6147 14.0721 12.0736 13.6131 12.6381 13.3255C13.0165 13.1327 13.4097 13.0614 13.8051 13.0291C14.1796 12.9985 14.6344 12.9985 15.1615 12.9985H17.8386C18.3658 12.9985 18.8205 12.9985 19.1951 13.0291C19.5905 13.0614 19.9837 13.1327 20.3621 13.3255C20.9265 13.6131 21.3855 14.0721 21.6731 14.6366C21.8659 15.0149 21.9372 15.4082 21.9695 15.8035C22.0001 16.1781 22.0001 16.6328 22.0001 17.16V17.8371C22.0001 18.3642 22.0001 18.819 21.9695 19.1936C21.9372 19.5889 21.8659 19.9821 21.6731 20.3605C21.3855 20.925 20.9265 21.3839 20.3621 21.6716C19.9837 21.8644 19.5905 21.9357 19.1951 21.968C18.8205 21.9986 18.3658 21.9986 17.8387 21.9985H15.1615C14.6344 21.9986 14.1796 21.9986 13.8051 21.968C13.4097 21.9357 13.0165 21.8644 12.6381 21.6716C12.0736 21.3839 11.6147 20.925 11.3271 20.3605C11.1343 19.9821 11.063 19.5889 11.0307 19.1936C11.0001 18.819 11.0001 18.3642 11.0001 17.8371V17.16Z"
    fill="currentcolor"
  />
</svg>
