<svg
  xmlns="http://www.w3.org/2000/svg"
  width="24"
  height="24"
  viewBox="0 0 24 24"
  fill="none"
>
  <path
    d="M7.58388 1.99858C7.96458 1.99828 8.29241 1.99801 8.58527 2.05627C9.77534 2.29299 10.7056 3.22328 10.9424 4.41335C11.0006 4.70621 11.0003 5.03404 11 5.41474L11 5.49862L11 5.58251C11.0003 5.96321 11.0006 6.29104 10.9424 6.58389C10.7056 7.77397 9.77534 8.70426 8.58527 8.94098C8.29241 8.99923 7.96458 8.99897 7.58388 8.99867L5.41611 8.99867C5.03541 8.99897 4.70758 8.99923 4.41472 8.94098C3.22465 8.70426 2.29436 7.77396 2.05764 6.58389C1.99939 6.29105 1.99965 5.96323 1.99995 5.58256L2 5.49862L1.99995 5.41472C1.99965 5.03405 1.99939 4.70619 2.05764 4.41335C2.29436 3.22328 3.22465 2.29299 4.41473 2.05627C4.70758 1.99801 5.03542 1.99828 5.41611 1.99858L7.58388 1.99858Z"
    fill="currentcolor"
  />
  <path
    d="M17.8385 1.99862C18.3657 1.9986 18.8205 1.99859 19.195 2.02919C19.5904 2.06149 19.9836 2.13281 20.362 2.3256C20.9265 2.61322 21.3854 3.07217 21.673 3.63665C21.8658 4.01503 21.9371 4.40825 21.9694 4.8036C22 5.17816 22 5.63291 22 6.16004V17.8372C22 18.3643 22 18.8191 21.9694 19.1937C21.9371 19.589 21.8658 19.9822 21.673 20.3606C21.3854 20.9251 20.9265 21.384 20.362 21.6716C19.9836 21.8644 19.5904 21.9358 19.195 21.9681C18.8205 21.9987 18.3657 21.9986 17.8386 21.9986H17.1614C16.6343 21.9986 16.1795 21.9987 15.805 21.9681C15.4096 21.9358 15.0164 21.8644 14.638 21.6716C14.0735 21.384 13.6146 20.9251 13.327 20.3606C13.1342 19.9822 13.0629 19.589 13.0306 19.1937C13 18.8191 13 18.3643 13 17.8372L13 6.1601C13 5.63296 13 5.17817 13.0306 4.8036C13.0629 4.40825 13.1342 4.01503 13.327 3.63665C13.6146 3.07217 14.0735 2.61322 14.638 2.3256C15.0164 2.13281 15.4096 2.06149 15.805 2.02919C16.1795 1.99859 16.6343 1.9986 17.1614 1.99862L17.8385 1.99862Z"
    fill="currentcolor"
  />
  <path
    d="M6.83854 10.9986C7.36568 10.9986 7.82046 10.9986 8.19502 11.0292C8.59037 11.0615 8.98359 11.1328 9.36197 11.3256C9.92645 11.6132 10.3854 12.0722 10.673 12.6367C10.8658 13.015 10.9371 13.4082 10.9694 13.8036C11 14.1782 11 14.6329 11 15.1601V17.8371C11 18.3643 11 18.8191 10.9694 19.1937C10.9371 19.589 10.8658 19.9822 10.673 20.3606C10.3854 20.9251 9.92645 21.384 9.36197 21.6716C8.98359 21.8644 8.59037 21.9358 8.19502 21.9681C7.82046 21.9987 7.3657 21.9986 6.83856 21.9986H6.16143C5.63429 21.9986 5.17953 21.9987 4.80497 21.9681C4.40962 21.9358 4.0164 21.8644 3.63802 21.6716C3.07354 21.384 2.6146 20.9251 2.32698 20.3606C2.13418 19.9822 2.06287 19.589 2.03056 19.1937C1.99996 18.8191 1.99998 18.3643 2 17.8372L2 15.1601C1.99998 14.6329 1.99996 14.1782 2.03057 13.8036C2.06287 13.4082 2.13418 13.015 2.32698 12.6367C2.6146 12.0722 3.07354 11.6132 3.63802 11.3256C4.0164 11.1328 4.40962 11.0615 4.80497 11.0292C5.17954 10.9986 5.63429 10.9986 6.16143 10.9986H6.83854Z"
    fill="currentcolor"
  />
</svg>
