<svg
  xmlns="http://www.w3.org/2000/svg"
  width="24"
  height="24"
  viewBox="0 0 24 24"
  fill="none"
>
  <path
    d="M2.00004 7.58239C1.99974 7.96308 1.99948 8.29092 2.05773 8.58377C2.29445 9.77384 3.22474 10.7041 4.41482 10.9409C4.70767 10.9991 5.03551 10.9988 5.4162 10.9985L5.50009 10.9985L5.58397 10.9985C5.96467 10.9988 6.2925 10.9991 6.58536 10.9409C7.77543 10.7041 8.70572 9.77384 8.94244 8.58377C9.0007 8.29092 9.00043 7.96308 9.00013 7.58239V5.41462C9.00043 5.03392 9.0007 4.70608 8.94244 4.41323C8.70572 3.22316 7.77543 2.29287 6.58536 2.05615C6.29252 1.99789 5.9647 1.99815 5.58402 1.99846L5.50009 1.9985L5.41619 1.99846C5.03551 1.99815 4.70766 1.99789 4.41482 2.05615C3.22474 2.29287 2.29445 3.22316 2.05773 4.41323C1.99948 4.70608 1.99974 5.03392 2.00004 5.41462V7.58239Z"
    fill="currentcolor"
  />
  <path
    d="M2.00009 17.837C2.00007 18.3642 2.00005 18.819 2.03066 19.1935C2.06296 19.5889 2.13427 19.9821 2.32707 20.3605C2.61469 20.925 3.07363 21.3839 3.63812 21.6715C4.0165 21.8643 4.40971 21.9356 4.80506 21.9679C5.17962 21.9985 5.63437 21.9985 6.1615 21.9985H17.8386C18.3658 21.9985 18.8206 21.9985 19.1951 21.9679C19.5905 21.9356 19.9837 21.8643 20.3621 21.6715C20.9265 21.3839 21.3855 20.925 21.6731 20.3605C21.8659 19.9821 21.9372 19.5889 21.9695 19.1935C22.0001 18.819 22.0001 18.3642 22.0001 17.8371V17.1599C22.0001 16.6328 22.0001 16.178 21.9695 15.8035C21.9372 15.4081 21.8659 15.0149 21.6731 14.6365C21.3855 14.072 20.9265 13.6131 20.3621 13.3255C19.9837 13.1327 19.5905 13.0614 19.1951 13.0291C18.8205 12.9985 18.3658 12.9985 17.8386 12.9985H6.16157C5.63442 12.9985 5.17963 12.9985 4.80506 13.0291C4.40971 13.0614 4.0165 13.1327 3.63812 13.3255C3.07363 13.6131 2.61469 14.072 2.32707 14.6365C2.13427 15.0149 2.06296 15.4081 2.03066 15.8035C2.00005 16.178 2.00007 16.6328 2.00009 17.16L2.00009 17.837Z"
    fill="currentcolor"
  />
  <path
    d="M11.0001 6.83705C11.0001 7.36418 11.0001 7.81896 11.0307 8.19353C11.063 8.58887 11.1343 8.98209 11.3271 9.36047C11.6147 9.92496 12.0736 10.3839 12.6381 10.6715C13.0165 10.8643 13.4097 10.9356 13.8051 10.9679C14.1796 10.9985 14.6344 10.9985 15.1615 10.9985H17.8386C18.3658 10.9985 18.8205 10.9985 19.1951 10.9679C19.5905 10.9356 19.9837 10.8643 20.3621 10.6715C20.9265 10.3839 21.3855 9.92496 21.6731 9.36047C21.8659 8.98209 21.9372 8.58887 21.9695 8.19353C22.0001 7.81896 22.0001 7.36421 22.0001 6.83707V6.15993C22.0001 5.6328 22.0001 5.17804 21.9695 4.80347C21.9372 4.40813 21.8659 4.01491 21.6731 3.63653C21.3855 3.07204 20.9265 2.6131 20.3621 2.32548C19.9837 2.13269 19.5905 2.06137 19.1951 2.02907C18.8205 1.99847 18.3658 1.99848 17.8387 1.9985H15.1615C14.6344 1.99848 14.1796 1.99847 13.8051 2.02907C13.4097 2.06137 13.0165 2.13269 12.6381 2.32548C12.0736 2.6131 11.6147 3.07204 11.3271 3.63653C11.1343 4.01491 11.063 4.40813 11.0307 4.80347C11.0001 5.17804 11.0001 5.63279 11.0001 6.15993V6.83705Z"
    fill="currentcolor"
  />
</svg>
