<svg
  xmlns="http://www.w3.org/2000/svg"
  width="24"
  height="24"
  viewBox="0 0 24 24"
  fill="none"
>
  <path
    d="M8.1 3.37905C7.80966 3.47632 7.5241 3.6195 7.21185 3.77605L4.21063 5.27662C3.67939 5.54137 3.21221 5.77419 2.85696 6.1369C2.54581 6.45458 2.30918 6.83747 2.16418 7.25784C1.99863 7.73779 1.99932 8.25977 2.00011 8.85333L2.00021 14.9219C2.0002 15.7157 2.00018 16.3779 2.04693 16.9027C2.09445 17.436 2.19921 17.9764 2.51349 18.4421C2.99459 19.155 3.75853 19.6271 4.61133 19.7386C5.16842 19.8114 5.69859 19.6635 6.19684 19.4675C6.68708 19.2746 7.27939 18.9785 7.98933 18.6235L8.03102 18.6026C8.05481 18.5907 8.07779 18.5793 8.1 18.5682V3.37905Z"
    fill="currentcolor"
  />
  <path
    d="M9.9 18.568C9.92235 18.5791 9.94547 18.5906 9.96941 18.6026L13.2118 20.2239C13.5241 20.3805 13.8097 20.5237 14.1 20.6209V5.43179C14.0778 5.42072 14.0548 5.40925 14.031 5.39735L10.7886 3.77605C10.4762 3.61942 10.1905 3.47618 9.9 3.37891V18.568Z"
    fill="currentcolor"
  />
  <path
    d="M15.9 5.43201V20.6211C16.1905 20.5238 16.4762 20.3806 16.7886 20.2239L19.7898 18.7234C20.321 18.4586 20.7882 18.2258 21.1435 17.8631C21.4546 17.5454 21.6913 17.1625 21.8363 16.7421C22.0018 16.2622 22.0011 15.7402 22.0003 15.1466L22.0002 9.07804C22.0002 8.28431 22.0002 7.622 21.9535 7.09728C21.906 6.56398 21.8012 6.02361 21.4869 5.5579C21.0058 4.84499 20.2419 4.37286 19.3891 4.26137C18.832 4.18854 18.3018 4.33649 17.8036 4.5325C17.3133 4.72536 16.721 5.02154 16.011 5.37655L15.9694 5.39735C15.9455 5.40932 15.9223 5.42087 15.9 5.43201Z"
    fill="currentcolor"
  />
</svg>
