<svg
  xmlns="http://www.w3.org/2000/svg"
  width="24"
  height="24"
  viewBox="0 0 24 24"
  fill="none"
>
  <path
    fill-rule="evenodd"
    clip-rule="evenodd"
    d="M1.84985 11.9999C1.84985 6.39416 6.39416 1.84985 11.9999 1.84985C17.6055 1.84985 22.1499 6.39416 22.1499 11.9999C22.1499 17.6055 17.6055 22.1499 11.9999 22.1499C6.39416 22.1499 1.84985 17.6055 1.84985 11.9999ZM9.60701 8.1928C9.21649 7.80227 8.58332 7.80227 8.1928 8.1928C7.80227 8.58332 7.80227 9.21649 8.1928 9.60701L10.5857 11.9999L8.1928 14.3928C7.80227 14.7833 7.80227 15.4165 8.1928 15.807C8.58332 16.1975 9.21649 16.1975 9.60701 15.807L11.9999 13.4141L14.3928 15.807C14.7833 16.1975 15.4165 16.1975 15.807 15.807C16.1975 15.4165 16.1975 14.7833 15.807 14.3928L13.4141 11.9999L15.807 9.60701C16.1975 9.21649 16.1975 8.58332 15.807 8.1928C15.4165 7.80227 14.7833 7.80227 14.3928 8.1928L11.9999 10.5857L9.60701 8.1928Z"
    fill="currentcolor"
  />
</svg>
