<svg
  xmlns="http://www.w3.org/2000/svg"
  width="24"
  height="24"
  viewBox="0 0 24 24"
  fill="none"
>
  <path
    d="M5.26904 0.500086C5.53824 0.49655 5.79749 0.601704 5.98816 0.791766L7.68645 2.48465L7.73363 2.53158C7.92849 2.72518 8.13241 2.92777 8.2835 3.17426C8.41547 3.38956 8.51249 3.62435 8.57106 3.86991C8.63807 4.15089 8.63697 4.43834 8.63592 4.71368L8.6357 4.78034L8.60024 20.9587C8.60018 20.9898 8.60011 21.0216 8.5993 21.0518C8.56977 22.145 7.80538 23.0812 6.74113 23.3302C6.71178 23.3371 6.68079 23.3435 6.65049 23.3498L6.5893 23.3626C5.6949 23.5486 4.77188 23.5458 3.87959 23.354C2.77994 23.1175 1.99754 22.1452 2.00001 21.0211L2.03567 4.75161L2.03574 4.68754C2.03591 4.42177 2.03608 4.14476 2.09976 3.87298C2.15538 3.63558 2.24679 3.40805 2.37075 3.19816C2.51259 2.95801 2.70388 2.75766 2.88785 2.56497L2.93214 2.51854L4.55784 0.810556C4.74345 0.615551 4.99985 0.503623 5.26904 0.500086Z"
    fill="currentcolor"
  />
  <path
    d="M15.1615 1C14.6343 0.999984 14.1795 0.99997 13.805 1.03057C13.4096 1.06287 13.0164 1.13419 12.638 1.32698C12.0735 1.6146 11.6146 2.07354 11.327 2.63803C11.1342 3.01641 11.0629 3.40963 11.0306 3.80498C10.9768 4.46305 11.5355 5 12.1958 5L15 5C15.5523 5 16 5.44772 16 6C16 6.55229 15.5523 7 15 7L12 7C11.4477 7 11 7.44772 11 8C11 8.55229 11.4477 9 12 9H16C16.5523 9 17 9.44772 17 10C17 10.5523 16.5523 11 16 11H12C11.4477 11 11 11.4477 11 12C11 12.5523 11.4477 13 12 13H15C15.5523 13 16 13.4477 16 14C16 14.5523 15.5523 15 15 15L12 15C11.4477 15 11 15.4477 11 16C11 16.5523 11.4477 17 12 17L16 17C16.5523 17 17 17.4477 17 18C17 18.5523 16.5523 19 16 19L12.1958 19C11.5355 19 10.9768 19.537 11.0306 20.195C11.0629 20.5904 11.1342 20.9836 11.327 21.362C11.6146 21.9265 12.0735 22.3854 12.638 22.673C13.0164 22.8658 13.4096 22.9371 13.805 22.9694C14.1796 23 14.6343 23 15.1615 23H17.8386C18.3657 23 18.8205 23 19.195 22.9694C19.5904 22.9371 19.9836 22.8658 20.362 22.673C20.9265 22.3854 21.3854 21.9265 21.673 21.362C21.8658 20.9836 21.9371 20.5904 21.9694 20.195C22 19.8205 22 19.3657 22 18.8386V5.16144C22 4.63432 22 4.17953 21.9694 3.80498C21.9371 3.40963 21.8658 3.01641 21.673 2.63803C21.3854 2.07354 20.9265 1.6146 20.362 1.32698C19.9836 1.13419 19.5904 1.06287 19.195 1.03057C18.8205 0.99997 18.3657 0.999984 17.8386 1H15.1615Z"
    fill="currentcolor"
  />
</svg>
