<svg
  xmlns="http://www.w3.org/2000/svg"
  width="24"
  height="24"
  viewBox="0 0 24 24"
  fill="none"
>
  <path
    fill-rule="evenodd"
    clip-rule="evenodd"
    d="M7.08769 6.08751C7.52755 3.78544 9.56758 2 11.9999 2C14.4322 2 16.4723 3.78544 16.9121 6.08751C17.2783 6.1395 17.6221 6.22509 17.9556 6.36922C18.7091 6.69486 19.3592 7.22041 19.8355 7.88899C20.1355 8.31007 20.3218 8.77217 20.4752 9.29618C20.6227 9.80007 20.756 10.4223 20.9185 11.1809L21.3289 13.096C21.6043 14.3811 21.8248 15.4102 21.9286 16.246C22.0348 17.1001 22.0359 17.8638 21.7927 18.5893C21.411 19.7277 20.6325 20.6907 19.5993 21.3024C18.9409 21.6923 18.1939 21.8512 17.3365 21.9264C16.4975 22 15.4451 22 14.1307 22H9.86912C8.55472 22 7.50235 22 6.66335 21.9264C5.80594 21.8512 5.05893 21.6923 4.40052 21.3024C3.36737 20.6907 2.58883 19.7277 2.20718 18.5893C1.96397 17.8638 1.96508 17.1001 2.07119 16.246C2.17502 15.4102 2.39553 14.3812 2.67094 13.096L3.08129 11.181C3.24384 10.4224 3.37718 9.80009 3.52466 9.29618C3.67802 8.77217 3.86434 8.31007 4.16432 7.88899C4.64062 7.22041 5.29072 6.69486 6.04426 6.36922C6.37776 6.2251 6.72153 6.1395 7.08769 6.08751ZM9.18048 6.00011H14.8193C14.3965 4.84517 13.2805 4 11.9999 4C10.7193 4 9.6033 4.84517 9.18048 6.00011ZM10.9701 12.2425C11.1041 11.7067 10.7783 11.1638 10.2425 11.0299C9.70674 10.8959 9.16381 11.2217 9.02986 11.7575L8.02986 15.7575C7.89591 16.2933 8.22167 16.8362 8.75746 16.9701C9.29326 17.1041 9.83619 16.7783 9.97014 16.2425L10.9701 12.2425ZM14.9701 11.7575C14.8362 11.2217 14.2933 10.8959 13.7575 11.0299C13.2217 11.1638 12.8959 11.7067 13.0299 12.2425L14.0299 16.2425C14.1638 16.7783 14.7067 17.1041 15.2425 16.9701C15.7783 16.8362 16.1041 16.2933 15.9701 15.7575L14.9701 11.7575Z"
    fill="currentcolor"
  />
</svg>
