<svg
  xmlns="http://www.w3.org/2000/svg"
  width="24"
  height="24"
  viewBox="0 0 24 24"
  fill="none"
>
  <path
    fill-rule="evenodd"
    clip-rule="evenodd"
    d="M10.5436 1.42748C11.4215 1.11044 12.3827 1.11044 13.2607 1.42748L18.7259 3.40104C20.2058 3.93543 21.2349 5.28772 21.3556 6.85646L21.5826 9.80696C21.9458 14.5291 19.4977 19.0231 15.3333 21.2788L13.8446 22.0852C12.6289 22.7437 11.1593 22.7277 9.95824 22.0429L8.43757 21.1758C4.54948 18.9589 2.21824 14.7625 2.39025 10.2901L2.5175 6.98148C2.58012 5.3536 3.62372 3.92631 5.15597 3.373L10.5436 1.42748ZM15.7967 10.5597C16.2528 10.2482 16.3701 9.62599 16.0586 9.1699C15.7472 8.71381 15.125 8.59655 14.6689 8.908C13.2434 9.88139 11.9944 11.0936 10.9989 12.5078L9.83954 11.3497C9.44881 10.9594 8.81564 10.9597 8.42533 11.3505C8.03501 11.7412 8.03535 12.3744 8.42608 12.7647L10.4663 14.8027C10.6867 15.0228 10.9971 15.1277 11.3058 15.0863C11.6146 15.045 11.8864 14.8621 12.0411 14.5916C12.9623 12.9808 14.2532 11.6137 15.7967 10.5597Z"
    fill="currentcolor"
  />
</svg>
