<svg
  xmlns="http://www.w3.org/2000/svg"
  width="24"
  height="24"
  viewBox="0 0 24 24"
  fill="none"
>
  <path
    fill-rule="evenodd"
    clip-rule="evenodd"
    d="M2 12C2 6.47715 6.47715 2 12 2C17.5228 2 22 6.47715 22 12C22 17.5228 17.5228 22 12 22C6.47715 22 2 17.5228 2 12ZM11.3045 7.98146C11.7564 7.83463 12.2432 7.83463 12.6951 7.98146C12.998 8.07988 13.2443 8.2506 13.4711 8.44313C13.686 8.62555 13.9272 8.86673 14.2067 9.1463L14.8535 9.79307C15.1331 10.0726 15.3742 10.3138 15.5567 10.5287C15.7492 10.7555 15.9199 11.0018 16.0183 11.3047C16.1652 11.7566 16.1652 12.2434 16.0183 12.6953C15.9199 12.9982 15.7492 13.2446 15.5567 13.4714C15.3742 13.6862 15.1331 13.9274 14.8535 14.207L14.2067 14.8537C13.9272 15.1333 13.686 15.3745 13.4711 15.5569C13.2443 15.7494 12.998 15.9202 12.6951 16.0186C12.2432 16.1654 11.7564 16.1654 11.3045 16.0186C11.0016 15.9202 10.7552 15.7494 10.5284 15.5569C10.3135 15.3745 10.0724 15.1333 9.79283 14.8537L9.14606 14.207C8.8665 13.9274 8.6253 13.6862 8.44289 13.4714C8.25035 13.2446 8.07964 12.9982 7.98122 12.6953C7.83439 12.2434 7.83439 11.7566 7.98122 11.3047C8.07964 11.0018 8.25035 10.7555 8.44289 10.5287C8.6253 10.3138 8.86648 10.0726 9.14605 9.79308L9.79283 9.1463C10.0724 8.86674 10.3136 8.62554 10.5284 8.44313C10.7552 8.2506 11.0016 8.07988 11.3045 7.98146Z"
    fill="currentcolor"
  />
</svg>
