<svg
  xmlns="http://www.w3.org/2000/svg"
  width="24"
  height="24"
  viewBox="0 0 24 24"
  fill="none"
>
  <path
    opacity="0.28"
    d="M20.7905 11.4057C19.1622 9.37278 17.273 7.55556 15.1696 6L15.47 12L15.1696 18C17.273 16.4444 19.1622 14.6272 20.7905 12.5943C20.9302 12.4199 21 12.21 21 12C21 11.79 20.9302 11.5801 20.7905 11.4057Z"
    fill="currentcolor"
  />
  <path
    d="M15.47 12L15.1696 6C17.273 7.55556 19.1622 9.37278 20.7905 11.4057C20.9302 11.5801 21 11.79 21 12C21 12.21 20.9302 12.4199 20.7905 12.5943C19.1622 14.6272 17.273 16.4444 15.1696 18L15.47 12ZM15.47 12L3 12"
    stroke="currentcolor"
    stroke-width="2"
    stroke-linecap="round"
    stroke-linejoin="round"
  />
</svg>
