<svg
  xmlns="http://www.w3.org/2000/svg"
  width="24"
  height="24"
  viewBox="0 0 24 24"
  fill="none"
>
  <path
    opacity="0.28"
    d="M11.4057 19.7905C9.37278 18.1622 7.55556 16.273 6 14.1696L12 14.47L18 14.1696C16.4444 16.273 14.6272 18.1622 12.5943 19.7905C12.4199 19.9302 12.21 20 12 20C11.79 20 11.5801 19.9302 11.4057 19.7905Z"
    fill="currentcolor"
  />
  <path
    d="M12 14.47L6 14.1696C7.55556 16.273 9.37278 18.1622 11.4057 19.7905C11.5801 19.9302 11.79 20 12 20C12.21 20 12.4199 19.9302 12.5943 19.7905C14.6272 18.1622 16.4444 16.273 18 14.1696L12 14.47ZM12 14.47L12 4"
    stroke="currentcolor"
    stroke-width="2"
    stroke-linecap="round"
    stroke-linejoin="round"
  />
</svg>
