<svg
  xmlns="http://www.w3.org/2000/svg"
  width="24"
  height="24"
  viewBox="0 0 24 24"
  fill="none"
>
  <path
    opacity="0.28"
    d="M11.4057 4.20952C9.37278 5.83783 7.55556 7.727 6 9.8304L12 9.53L18 9.8304C16.4444 7.727 14.6272 5.83783 12.5943 4.20952C12.4199 4.06984 12.21 4 12 4C11.79 4 11.5801 4.06984 11.4057 4.20952Z"
    fill="currentcolor"
  />
  <path
    d="M12 9.53L6 9.8304C7.55556 7.727 9.37278 5.83783 11.4057 4.20952C11.5801 4.06984 11.79 4 12 4C12.21 4 12.4199 4.06984 12.5943 4.20952C14.6272 5.83783 16.4444 7.727 18 9.8304L12 9.53ZM12 9.53L12 20"
    stroke="currentcolor"
    stroke-width="2"
    stroke-linecap="round"
    stroke-linejoin="round"
  />
</svg>
