<svg
  xmlns="http://www.w3.org/2000/svg"
  width="24"
  height="24"
  viewBox="0 0 24 24"
  fill="none"
>
  <path
    opacity="0.28"
    d="M4.20952 12.5943C5.83783 14.6272 7.727 16.4444 9.8304 18L9.53 12L9.8304 6C7.727 7.55556 5.83783 9.37278 4.20952 11.4057C4.06984 11.5801 4 11.79 4 12C4 12.21 4.06984 12.4199 4.20952 12.5943Z"
    fill="currentcolor"
  />
  <path
    d="M9.53 12L9.8304 18C7.727 16.4444 5.83783 14.6272 4.20952 12.5943C4.06984 12.4199 4 12.21 4 12C4 11.79 4.06984 11.5801 4.20952 11.4057C5.83783 9.37278 7.727 7.55556 9.8304 6L9.53 12ZM9.53 12L20 12"
    stroke="currentcolor"
    stroke-width="2"
    stroke-linecap="round"
    stroke-linejoin="round"
  />
</svg>
