<svg
  xmlns="http://www.w3.org/2000/svg"
  width="24"
  height="24"
  viewBox="0 0 24 24"
  fill="none"
>
  <path
    opacity="0.28"
    d="M6 10.1696C7.55556 12.273 9.37278 14.1622 11.4057 15.7905C11.5801 15.9302 11.79 16 12 16C12.21 16 12.4199 15.9302 12.5943 15.7905C14.6272 14.1622 16.4444 12.273 18 10.1696C16.0095 10.4451 14.0047 10.5828 12 10.5828C9.99526 10.5828 7.99051 10.4451 6 10.1696Z"
    fill="currentcolor"
  />
  <path
    d="M12 10.5828V4M12 10.5828C9.99526 10.5828 7.99051 10.4451 6 10.1696C7.55556 12.273 9.37278 14.1622 11.4057 15.7905C11.5801 15.9302 11.79 16 12 16C12.21 16 12.4199 15.9302 12.5943 15.7905C14.6272 14.1622 16.4444 12.273 18 10.1696C16.0095 10.4451 14.0047 10.5828 12 10.5828Z"
    stroke="currentcolor"
    stroke-width="2"
    stroke-linecap="round"
    stroke-linejoin="round"
  />
  <path
    d="M19 20H5"
    stroke="currentcolor"
    stroke-width="2"
    stroke-linecap="round"
    stroke-linejoin="round"
  />
</svg>
