<svg
  xmlns="http://www.w3.org/2000/svg"
  width="24"
  height="24"
  viewBox="0 0 24 24"
  fill="none"
>
  <path
    opacity="0.28"
    d="M3.39987 7.21924C3.04633 8.22958 3.04633 9.48639 3.04633 12C3.04633 14.5136 3.04633 15.7704 3.39987 16.7808C4.03309 18.5904 5.45592 20.0132 7.26557 20.6465C8.27591 21 9.53272 21 12.0463 21C14.5599 21 15.8167 21 16.8271 20.6465C18.6367 20.0132 20.0595 18.5904 20.6928 16.7808C21.0463 15.7704 21.0463 14.5136 21.0463 12C21.0463 9.48639 21.0463 8.22958 20.6928 7.21924C20.0595 5.40959 18.6367 3.98676 16.8271 3.35354C15.8167 3 14.5599 3 12.0463 3C9.53272 3 8.27591 3 7.26557 3.35354C5.45592 3.98676 4.03309 5.40959 3.39987 7.21924Z"
    fill="currentcolor"
  />
  <path
    d="M17.0463 6.99945H17.0563M3.04633 12C3.04633 9.48639 3.04633 8.22958 3.39987 7.21924C4.03309 5.40959 5.45592 3.98676 7.26557 3.35354C8.27591 3 9.53272 3 12.0463 3C14.5599 3 15.8167 3 16.8271 3.35354C18.6367 3.98676 20.0595 5.40959 20.6928 7.21924C21.0463 8.22958 21.0463 9.48639 21.0463 12C21.0463 14.5136 21.0463 15.7704 20.6928 16.7808C20.0595 18.5904 18.6367 20.0132 16.8271 20.6465C15.8167 21 14.5599 21 12.0463 21C9.53272 21 8.27591 21 7.26557 20.6465C5.45592 20.0132 4.03309 18.5904 3.39987 16.7808C3.04633 15.7704 3.04633 14.5136 3.04633 12ZM15.8238 11.4398C15.9416 12.2344 15.8059 13.0458 15.4359 13.7588C15.066 14.4718 14.4807 15.0499 13.7632 15.4111C13.0457 15.7722 12.2326 15.8979 11.4396 15.7703C10.6466 15.6427 9.91401 15.2683 9.34604 14.7003C8.77807 14.1323 8.40365 13.3997 8.27605 12.6067C8.14844 11.8137 8.27414 11.0006 8.63526 10.2831C8.99638 9.56564 9.57455 8.98031 10.2875 8.61036C11.0005 8.24042 11.8119 8.1047 12.6064 8.22253C13.4169 8.3427 14.1672 8.72036 14.7466 9.29971C15.3259 9.87907 15.7036 10.6294 15.8238 11.4398Z"
    stroke="currentcolor"
    stroke-width="2"
    stroke-linecap="round"
    stroke-linejoin="round"
  />
</svg>
