<svg
  xmlns="http://www.w3.org/2000/svg"
  width="24"
  height="24"
  viewBox="0 0 24 24"
  fill="none"
>
  <path
    opacity="0.28"
    d="M3 12C3 9.20435 3 7.80653 3.45672 6.7039C4.06569 5.23373 5.23373 4.06569 6.7039 3.45672C7.80653 3 9.20435 3 12 3C14.7956 3 16.1935 3 17.2961 3.45672C18.7663 4.06569 19.9343 5.23373 20.5433 6.7039C21 7.80653 21 9.20435 21 12C21 14.7956 21 16.1935 20.5433 17.2961C19.9343 18.7663 18.7663 19.9343 17.2961 20.5433C16.1935 21 14.7956 21 12 21C9.20435 21 7.80653 21 6.7039 20.5433C5.23373 19.9343 4.06569 18.7663 3.45672 17.2961C3 16.1935 3 14.7956 3 12Z"
    fill="currentcolor"
  />
  <path
    d="M8.99998 15L12 12M12 12L15 8.99998M12 12L8.99998 8.99998M12 12L15 15M11.9999 20.9999C9.20429 20.9999 7.80647 20.9999 6.70384 20.5432C5.23367 19.9342 4.06563 18.7661 3.45666 17.296C2.99994 16.1934 2.99994 14.7955 2.99994 11.9999C2.99994 9.20423 2.99994 7.8064 3.45666 6.70378C4.06563 5.23361 5.23367 4.06556 6.70384 3.4566C7.80647 2.99988 9.20429 2.99988 11.9999 2.99988C14.7956 2.99988 16.1934 2.99988 17.296 3.4566C18.7662 4.06556 19.9343 5.23361 20.5432 6.70378C20.9999 7.8064 20.9999 9.20423 20.9999 11.9999C20.9999 14.7955 20.9999 16.1934 20.5432 17.296C19.9343 18.7661 18.7662 19.9342 17.296 20.5432C16.1934 20.9999 14.7956 20.9999 11.9999 20.9999Z"
    stroke="currentcolor"
    stroke-width="2"
    stroke-linecap="round"
    stroke-linejoin="round"
  />
</svg>
