<svg
  xmlns="http://www.w3.org/2000/svg"
  width="24"
  height="24"
  viewBox="0 0 24 24"
  fill="none"
>
  <g opacity="0.28">
    <path
      d="M13.1225 6.90642L20.3924 3.05761C20.8066 2.83833 21.255 3.28669 21.0357 3.70089L17.1869 10.9709C16.2863 12.6721 14.7935 13.9768 12.9999 14.6447C12.3759 12.9943 11.1356 11.6564 9.48413 11C10.1621 9.24803 11.4509 7.79138 13.1225 6.90642Z"
      fill="currentcolor"
    />
    <path
      d="M4.77551 15.2719C5.80114 14.0267 7.63373 13.9483 8.8504 15.1651C10.1231 16.4377 9.65433 18.2397 8.72141 19.4547C7.01349 21.6791 3.42052 21.4765 2 19.0088C2.84409 19.0652 3.65709 18.5673 3.99241 17.7945C4.14243 17.4487 4.19268 17.0993 4.24243 16.7534C4.31566 16.2442 4.38779 15.7427 4.77551 15.2719Z"
      fill="currentcolor"
    />
  </g>
  <path
    d="M8.8504 15.1654C7.63373 13.9486 5.80114 14.027 4.77551 15.2723C4.12443 16.0628 4.36328 16.94 3.99241 17.7948C3.65709 18.5676 2.84409 19.0655 2 19.0091C3.42052 21.4768 7.01349 21.6794 8.72141 19.4551C9.65433 18.2401 10.1231 16.4381 8.8504 15.1654Z"
    stroke="currentcolor"
    stroke-width="2"
    stroke-linecap="round"
    stroke-linejoin="round"
  />
</svg>
