<svg
  xmlns="http://www.w3.org/2000/svg"
  width="24"
  height="24"
  viewBox="0 0 24 24"
  fill="none"
>
  <path
    opacity="0.28"
    d="M21.1501 12.0001C21.1501 17.0535 17.0535 21.1501 12.0001 21.1501C6.94669 21.1501 2.8501 17.0535 2.8501 12.0001C2.8501 6.94669 6.94669 2.8501 12.0001 2.8501C17.0535 2.8501 21.1501 6.94669 21.1501 12.0001Z"
    fill="currentcolor"
  />
  <path
    d="M12 15V12M12 12V9M12 12H9M12 12H15M21.15 12.0001C21.15 17.0535 17.0534 21.1501 12 21.1501C6.94657 21.1501 2.84998 17.0535 2.84998 12.0001C2.84998 6.94669 6.94657 2.8501 12 2.8501C17.0534 2.8501 21.15 6.94669 21.15 12.0001Z"
    stroke="currentcolor"
    stroke-width="2"
    stroke-linecap="round"
    stroke-linejoin="round"
  />
</svg>
