<svg
  xmlns="http://www.w3.org/2000/svg"
  width="24"
  height="24"
  viewBox="0 0 24 24"
  fill="none"
>
  <path
    opacity="0.28"
    d="M17 10C17 11.933 16.2165 13.683 14.9497 14.9497C13.683 16.2165 11.933 17 10 17C6.13401 17 3 13.866 3 10C3 6.13401 6.13401 3 10 3C13.866 3 17 6.13401 17 10Z"
    fill="currentcolor"
  />
  <path
    d="M21 21L14.9497 14.9497M14.9497 14.9497C16.2165 13.683 17 11.933 17 10C17 6.13401 13.866 3 10 3C6.13401 3 3 6.13401 3 10C3 13.866 6.13401 17 10 17C11.933 17 13.683 16.2165 14.9497 14.9497Z"
    stroke="currentcolor"
    stroke-width="2"
    stroke-linecap="round"
    stroke-linejoin="round"
  />
</svg>
