<svg
  xmlns="http://www.w3.org/2000/svg"
  width="24"
  height="24"
  viewBox="0 0 24 24"
  fill="none"
>
  <path
    opacity="0.28"
    d="M14.1026 4.417L13.7992 4.11982L13.7992 4.11981C13.1682 3.50174 12.8527 3.1927 12.4903 3.07661C12.1714 2.97446 11.8286 2.97446 11.5097 3.07661C11.1473 3.1927 10.8318 3.50174 10.2008 4.11981L10.2008 4.11982L9.89735 4.417L9.89735 4.41701C9.62451 4.68424 9.48809 4.81786 9.32984 4.91393C9.18951 4.99913 9.03695 5.06232 8.87749 5.1013C8.69764 5.14527 8.5067 5.14725 8.12481 5.15122H8.12481L7.70012 5.15562C6.81685 5.16479 6.37522 5.16937 6.03688 5.34354C5.73918 5.49678 5.49678 5.73918 5.34354 6.03688C5.16937 6.37522 5.16479 6.81685 5.15562 7.70012L5.15122 8.12481V8.12481C5.14725 8.5067 5.14527 8.69764 5.1013 8.87749C5.06232 9.03695 4.99913 9.18951 4.91393 9.32984C4.81786 9.48809 4.68424 9.62451 4.41701 9.89735L4.417 9.89735L4.11982 10.2008L4.11981 10.2008C3.50173 10.8318 3.1927 11.1473 3.07661 11.5097C2.97446 11.8286 2.97446 12.1714 3.07661 12.4903C3.1927 12.8527 3.50174 13.1682 4.11981 13.7992L4.11982 13.7992L4.417 14.1026C4.68424 14.3755 4.81786 14.5119 4.91393 14.6702C4.99913 14.8105 5.06232 14.963 5.1013 15.1225C5.14527 15.3024 5.14725 15.4933 5.15122 15.8752L5.15562 16.2999C5.16479 17.1831 5.16937 17.6248 5.34354 17.9631C5.49678 18.2608 5.73918 18.5032 6.03688 18.6565C6.37522 18.8306 6.81685 18.8352 7.70012 18.8444L8.12481 18.8488C8.5067 18.8527 8.69764 18.8547 8.87749 18.8987C9.03695 18.9377 9.18951 19.0009 9.32984 19.0861C9.48809 19.1821 9.62451 19.3158 9.89735 19.583L10.2008 19.8802L10.2008 19.8802C10.8318 20.4983 11.1473 20.8073 11.5097 20.9234C11.8286 21.0255 12.1714 21.0255 12.4903 20.9234C12.8527 20.8073 13.1682 20.4983 13.7992 19.8802L13.7992 19.8802L14.1026 19.583C14.3755 19.3158 14.5119 19.1821 14.6702 19.0861C14.8105 19.0009 14.963 18.9377 15.1225 18.8987C15.3024 18.8547 15.4933 18.8527 15.8752 18.8488L16.2999 18.8444C17.1831 18.8352 17.6248 18.8306 17.9631 18.6565C18.2608 18.5032 18.5032 18.2608 18.6565 17.9631C18.8306 17.6248 18.8352 17.1831 18.8444 16.2999L18.8488 15.8752C18.8527 15.4933 18.8547 15.3024 18.8987 15.1225C18.9377 14.963 19.0009 14.8105 19.0861 14.6702C19.1821 14.5119 19.3158 14.3755 19.583 14.1026L19.8802 13.7992L19.8802 13.7992C20.4983 13.1682 20.8073 12.8527 20.9234 12.4903C21.0255 12.1714 21.0255 11.8286 20.9234 11.5097C20.8073 11.1473 20.4983 10.8318 19.8802 10.2008L19.8802 10.2008L19.583 9.89735C19.3158 9.62451 19.1821 9.48809 19.0861 9.32984C19.0009 9.18951 18.9377 9.03695 18.8987 8.87749C18.8547 8.69764 18.8527 8.5067 18.8488 8.12481L18.8444 7.70012C18.8352 6.81685 18.8306 6.37522 18.6565 6.03688C18.5032 5.73918 18.2608 5.49678 17.9631 5.34354C17.6248 5.16937 17.1831 5.16479 16.2999 5.15562L15.8752 5.15122C15.4933 5.14725 15.3024 5.14527 15.1225 5.1013C14.963 5.06232 14.8105 4.99913 14.6702 4.91393C14.5119 4.81786 14.3755 4.68424 14.1026 4.417Z"
    fill="currentcolor"
  />
  <path
    d="M10.2007 4.11982C10.8318 3.50174 11.1473 3.1927 11.5097 3.07661C11.8285 2.97446 12.1713 2.97446 12.4902 3.07661C12.8526 3.1927 13.1681 3.50174 13.7992 4.11982L14.1026 4.417C14.3754 4.68424 14.5118 4.81786 14.6701 4.91393C14.8104 4.99913 14.963 5.06232 15.1225 5.1013C15.3023 5.14527 15.4932 5.14725 15.8751 5.15122L16.2998 5.15562C17.1831 5.16479 17.6247 5.16937 17.9631 5.34354C18.2608 5.49678 18.5032 5.73918 18.6564 6.03688C18.8306 6.37522 18.8351 6.81685 18.8443 7.70012L18.8487 8.12481C18.8527 8.5067 18.8547 8.69764 18.8986 8.87749C18.9376 9.03695 19.0008 9.18951 19.086 9.32984C19.1821 9.48809 19.3157 9.62451 19.5829 9.89735L19.8801 10.2008C20.4982 10.8318 20.8072 11.1473 20.9233 11.5097C21.0255 11.8286 21.0255 12.1714 20.9233 12.4903C20.8072 12.8527 20.4982 13.1682 19.8801 13.7992L19.5829 14.1026C19.3157 14.3755 19.1821 14.5119 19.086 14.6702C19.0008 14.8105 18.9376 14.963 18.8986 15.1225C18.8547 15.3024 18.8527 15.4933 18.8487 15.8752L18.8443 16.2999C18.8351 17.1831 18.8306 17.6248 18.6564 17.9631C18.5032 18.2608 18.2608 18.5032 17.9631 18.6565C17.6247 18.8306 17.1831 18.8352 16.2998 18.8444L15.8751 18.8488C15.4932 18.8527 15.3023 18.8547 15.1225 18.8987C14.963 18.9377 14.8104 19.0009 14.6701 19.0861C14.5118 19.1821 14.3754 19.3158 14.1026 19.583L13.7992 19.8802C13.1681 20.4983 12.8526 20.8073 12.4902 20.9234C12.1713 21.0255 11.8285 21.0255 11.5097 20.9234C11.1473 20.8073 10.8318 20.4983 10.2007 19.8802L9.89729 19.583C9.62445 19.3158 9.48803 19.1821 9.32978 19.0861C9.18945 19.0009 9.03689 18.9377 8.87742 18.8987C8.69758 18.8547 8.50664 18.8527 8.12475 18.8488L7.70006 18.8444C6.81679 18.8352 6.37516 18.8306 6.03682 18.6565C5.73912 18.5032 5.49672 18.2608 5.34348 17.9631C5.16931 17.6248 5.16473 17.1831 5.15556 16.2999L5.15115 15.8752C5.14719 15.4933 5.14521 15.3024 5.10124 15.1225C5.06226 14.963 4.99907 14.8105 4.91387 14.6702C4.81779 14.5119 4.68418 14.3755 4.41694 14.1026L4.11976 13.7992C3.50168 13.1682 3.19264 12.8527 3.07655 12.4903C2.9744 12.1714 2.9744 11.8286 3.07655 11.5097C3.19264 11.1473 3.50168 10.8318 4.11976 10.2008L4.41694 9.89735C4.68418 9.62451 4.81779 9.48809 4.91387 9.32984C4.99907 9.18951 5.06226 9.03695 5.10124 8.87749C5.14521 8.69764 5.14719 8.5067 5.15115 8.12481L5.15556 7.70012C5.16473 6.81685 5.16931 6.37522 5.34348 6.03688C5.49672 5.73918 5.73912 5.49678 6.03682 5.34354C6.37516 5.16937 6.81679 5.16479 7.70006 5.15562L8.12475 5.15122C8.50664 5.14725 8.69758 5.14527 8.87742 5.1013C9.03689 5.06232 9.18945 4.99913 9.32978 4.91393C9.48803 4.81786 9.62445 4.68424 9.89729 4.417L10.2007 4.11982Z"
    stroke="currentcolor"
    stroke-width="2"
    stroke-linecap="round"
    stroke-linejoin="round"
  />
  <path
    d="M10.991 12C10.991 11.4477 11.4479 11 12.0001 11C12.5524 11 13.0093 11.4477 13.0093 12C13.0093 12.5523 12.5524 13 12.0001 13C11.4479 13 10.991 12.5523 10.991 12Z"
    stroke="currentcolor"
    stroke-width="2"
    stroke-linecap="round"
    stroke-linejoin="round"
  />
</svg>
