<svg
  xmlns="http://www.w3.org/2000/svg"
  width="24"
  height="24"
  viewBox="0 0 24 24"
  fill="none"
>
  <path
    opacity="0.28"
    d="M5.49561 4.31356L10.8832 2.36804C11.5417 2.13025 12.2626 2.13025 12.9211 2.36804L18.3863 4.34159C19.4962 4.74238 20.268 5.7566 20.3585 6.93316L20.5855 9.88366C20.9185 14.2123 18.6744 18.3318 14.857 20.3995L13.3684 21.2059C12.4566 21.6998 11.3544 21.6878 10.4536 21.1741L8.93288 20.3071C5.3688 18.2749 3.23183 14.4282 3.38951 10.3285L3.51676 7.01992C3.56372 5.799 4.34643 4.72854 5.49561 4.31356Z"
    fill="currentcolor"
  />
  <path
    d="M9.13303 12.0191L11.1398 14.0237C12.1238 12.303 13.4987 10.8499 15.133 9.73381M10.8833 2.36804L5.49574 4.31356C4.34655 4.72854 3.56384 5.799 3.51688 7.01992L3.38963 10.3285C3.23195 14.4282 5.36892 18.2749 8.93301 20.3071L10.4537 21.1741C11.3545 21.6878 12.4567 21.6998 13.3685 21.2059L14.8571 20.3995C18.6745 18.3318 20.9186 14.2123 20.5856 9.88366L20.3587 6.93316C20.2681 5.7566 19.4963 4.74238 18.3864 4.34159L12.9212 2.36804C12.2627 2.13025 11.5418 2.13025 10.8833 2.36804Z"
    stroke="currentcolor"
    stroke-width="2"
    stroke-linecap="round"
    stroke-linejoin="round"
  />
</svg>
