<svg
  xmlns="http://www.w3.org/2000/svg"
  width="24"
  height="24"
  viewBox="0 0 24 24"
  fill="none"
>
  <path
    opacity="0.28"
    d="M7.60762 14.2527L7.60761 14.2526L6.57153 7L18.5045 7.82708C19.3745 7.88738 19.8094 7.91753 20.1243 8.11183C20.4011 8.28264 20.6149 8.5388 20.7335 8.84171C20.8683 9.18616 20.8201 9.61954 20.7239 10.4861L20.7238 10.4868L20.6326 11.3071C20.409 13.3202 20.2971 14.3267 19.8327 15.0864C19.4237 15.7555 18.8269 16.2897 18.1166 16.6224C17.3103 17 16.2975 17 14.2718 17H10.7755C9.79137 17 9.29933 17 8.90337 16.8191C8.55443 16.6596 8.25872 16.4031 8.0515 16.0803C7.81637 15.7139 7.74679 15.2268 7.60762 14.2527Z"
    fill="currentcolor"
  />
  <path
    d="M2 3H3.22465C4.20873 3 4.70077 3 5.09673 3.18096C5.44567 3.34043 5.74138 3.5969 5.9486 3.91978C6.18374 4.28618 6.25332 4.77327 6.39249 5.74745L7.60751 14.2526C7.74668 15.2268 7.81626 15.7139 8.0514 16.0803C8.25862 16.4031 8.55433 16.6596 8.90327 16.8191C9.29923 17 9.79127 17 10.7753 17H14.2717C16.2974 17 17.3102 17 18.1165 16.6224C18.8268 16.2897 19.4236 15.7555 19.8326 15.0864C20.297 14.3267 20.4089 13.3202 20.6325 11.3071C20.6624 11.0387 20.6927 10.7661 20.7237 10.4868C20.82 9.61979 20.8682 9.18626 20.7334 8.84171C20.6148 8.5388 20.401 8.28264 20.1242 8.11183C19.8093 7.91753 19.3744 7.88738 18.5044 7.82708L6.57143 7M10 21C10 21.5523 9.55228 22 9 22C8.44772 22 8 21.5523 8 21C8 20.4477 8.44772 20 9 20C9.55228 20 10 20.4477 10 21ZM19 21C19 21.5523 18.5523 22 18 22C17.4477 22 17 21.5523 17 21C17 20.4477 17.4477 20 18 20C18.5523 20 19 20.4477 19 21Z"
    stroke="currentcolor"
    stroke-width="2"
    stroke-linecap="round"
    stroke-linejoin="round"
  />
</svg>
