<svg
  xmlns="http://www.w3.org/2000/svg"
  width="24"
  height="24"
  viewBox="0 0 24 24"
  fill="none"
>
  <path
    opacity="0.28"
    d="M9 6.81153C9.74024 5.82454 10.599 4.93322 11.5564 4.15739C11.6859 4.05246 11.843 4 12 4C12.157 4 12.3141 4.05246 12.4436 4.15739C13.401 4.93322 14.2598 5.82454 15 6.81153C14.0061 6.71163 13.0009 6.55031 12 6.55031C10.9991 6.55031 9.99392 6.71163 9 6.81153Z"
    fill="currentcolor"
  />
  <path
    d="M3 15C3 17.7614 5.23858 20 8 20H16C18.7614 20 21 17.7614 21 15M12 6.55031V15M12 6.55031C10.9991 6.55031 9.99392 6.71163 9 6.81153C9.74024 5.82454 10.599 4.93322 11.5564 4.15739C11.6859 4.05246 11.843 4 12 4C12.157 4 12.3141 4.05246 12.4436 4.15739C13.401 4.93322 14.2598 5.82454 15 6.81153C14.0061 6.71163 13.0009 6.55031 12 6.55031Z"
    stroke="currentcolor"
    stroke-width="2"
    stroke-linecap="round"
    stroke-linejoin="round"
  />
</svg>
