<svg
  xmlns="http://www.w3.org/2000/svg"
  width="24"
  height="24"
  viewBox="0 0 24 24"
  fill="none"
>
  <path
    opacity="0.28"
    d="M6 9.8304C7.55556 7.727 9.37278 5.83783 11.4057 4.20952C11.5801 4.06984 11.79 4 12 4C12.21 4 12.4199 4.06984 12.5943 4.20952C14.6272 5.83783 16.4444 7.727 18 9.8304C16.0095 9.55491 14.0047 9.41717 12 9.41717C9.99526 9.41717 7.99051 9.55491 6 9.8304Z"
    fill="currentcolor"
  />
  <path
    d="M12 9.41717V16M12 9.41717C9.99526 9.41717 7.99051 9.55491 6 9.8304C7.55556 7.727 9.37278 5.83783 11.4057 4.20952C11.5801 4.06984 11.79 4 12 4C12.21 4 12.4199 4.06984 12.5943 4.20952C14.6272 5.83783 16.4444 7.727 18 9.8304C16.0095 9.55491 14.0047 9.41717 12 9.41717Z"
    stroke="currentcolor"
    stroke-width="2"
    stroke-linecap="round"
    stroke-linejoin="round"
  />
  <path
    d="M19 20H5"
    stroke="currentcolor"
    stroke-width="2"
    stroke-linecap="round"
    stroke-linejoin="round"
  />
</svg>
