<svg
  xmlns="http://www.w3.org/2000/svg"
  width="24"
  height="24"
  viewBox="0 0 24 24"
  fill="none"
>
  <path
    opacity="0.28"
    fill-rule="evenodd"
    clip-rule="evenodd"
    d="M2 12C2 6.47715 6.47715 2 12 2C17.5228 2 22 6.47715 22 12C22 16.41 18.9722 19.1684 18.9943 19.1467C18.8927 17.3926 17.367 16 15.4997 16H8.49974C6.63259 16 5.10692 17.3925 5.00515 19.1465C3.15077 17.3312 2 14.8 2 12ZM14.9998 10C14.9998 11.6569 13.6566 13 11.9998 13C10.3429 13 8.99976 11.6569 8.99976 10C8.99976 8.34315 10.3429 7 11.9998 7C13.6566 7 14.9998 8.34315 14.9998 10Z"
    fill="currentcolor"
  />
  <path
    d="M18.9946 19.1467C18.893 17.3926 17.3672 16 15.5 16H8.5C6.63276 16 5.10703 17.3926 5.00539 19.1467M18.9946 19.1467C20.8491 17.3314 22 14.8001 22 12C22 6.47715 17.5228 2 12 2C6.47715 2 2 6.47715 2 12C2 14.8001 3.15087 17.3314 5.00539 19.1467M18.9946 19.1467C17.1913 20.9119 14.7227 22 12 22C9.27726 22 6.80867 20.9119 5.00539 19.1467M15 10C15 11.6569 13.6569 13 12 13C10.3431 13 9 11.6569 9 10C9 8.34315 10.3431 7 12 7C13.6569 7 15 8.34315 15 10Z"
    stroke="currentcolor"
    stroke-width="2"
    stroke-linecap="round"
    stroke-linejoin="round"
  />
</svg>
