<svg
  xmlns="http://www.w3.org/2000/svg"
  width="24"
  height="24"
  viewBox="0 0 24 24"
  fill="none"
>
  <path
    opacity="0.28"
    d="M6 6V15C6 16.8638 6 17.7956 6.30448 18.5307C6.71046 19.5108 7.48915 20.2895 8.46927 20.6955C9.20435 21 10.1362 21 12 21C13.8638 21 14.7956 21 15.5307 20.6955C16.5108 20.2895 17.2895 19.5108 17.6955 18.5307C18 17.7956 18 16.8638 18 15V6"
    stroke="currentcolor"
    stroke-width="2"
    stroke-linecap="round"
    stroke-linejoin="round"
  />
  <path
    d="M16 6L14.8944 3.78885C14.3463 2.69253 13.2257 2 12 2C10.7743 2 9.65374 2.69253 9.10557 3.78885L8 6M4 6H20"
    stroke="currentcolor"
    stroke-width="2"
    stroke-linecap="round"
    stroke-linejoin="round"
  />
</svg>
