<svg
  xmlns="http://www.w3.org/2000/svg"
  width="24"
  height="24"
  viewBox="0 0 24 24"
  fill="none"
>
  <path
    opacity="0.28"
    d="M14.2681 17.2924L6.70764 9.73193"
    stroke="currentcolor"
    stroke-width="2"
    stroke-linecap="round"
    stroke-linejoin="round"
  />
  <path
    opacity="0.28"
    d="M12.5538 19H20.9999"
    stroke="currentcolor"
    stroke-width="2"
    stroke-linecap="round"
    stroke-linejoin="round"
  />
  <path
    d="M17.8972 5.80039L18.1996 6.10281C19.4699 7.37309 20.105 8.00823 20.343 8.74063C20.5523 9.38487 20.5523 10.0788 20.343 10.7231C20.105 11.4555 19.4699 12.0906 18.1996 13.3609L14.2682 17.2924L13.3609 18.1996C13.0594 18.5011 12.7936 18.7669 12.5539 19H6.90981C6.67008 18.7669 6.40437 18.5012 6.10287 18.1997L6.10281 18.1996L5.80039 17.8972C4.53011 16.6269 3.89496 15.9918 3.65699 15.2594C3.44767 14.6151 3.44767 13.9212 3.65699 13.2769C3.89496 12.5445 4.5301 11.9094 5.80038 10.6391L5.80039 10.6391L6.70765 9.73185L10.6391 5.80039L10.6391 5.80038C11.9094 4.5301 12.5445 3.89496 13.2769 3.65699C13.9212 3.44767 14.6151 3.44767 15.2594 3.65699C15.9918 3.89496 16.6269 4.53011 17.8972 5.80039Z"
    stroke="currentcolor"
    stroke-width="2"
    stroke-linecap="round"
    stroke-linejoin="round"
  />
</svg>
