<svg
  xmlns="http://www.w3.org/2000/svg"
  width="24"
  height="24"
  viewBox="0 0 24 24"
  fill="none"
>
  <path
    opacity="0.28"
    d="M3.35354 7.21924C3 8.22958 3 9.48639 3 12C3 14.5136 3 15.7704 3.35354 16.7808C3.98676 18.5904 5.40959 20.0132 7.21924 20.6465C8.22958 21 9.48639 21 12 21C14.5136 21 15.7704 21 16.7808 20.6465C18.5904 20.0132 20.0132 18.5904 20.6465 16.7808C21 15.7704 21 14.5136 21 12C21 9.48639 21 8.22958 20.6465 7.21924C20.0132 5.40959 18.5904 3.98676 16.7808 3.35354C15.7704 3 14.5136 3 12 3C9.48639 3 8.22958 3 7.21924 3.35354C5.40959 3.98676 3.98676 5.40959 3.35354 7.21924Z"
    stroke="currentcolor"
    stroke-width="2"
    stroke-linecap="round"
    stroke-linejoin="round"
  />
  <path
    d="M14.5964 7L14.5525 7C13.9599 6.99998 13.4476 6.99996 13.0256 7.03937C12.5769 7.08127 12.1377 7.17385 11.7217 7.41609C11.1021 7.77688 10.622 8.33788 10.3282 8.99681C10.1379 9.42391 10.064 9.87302 10.0296 10.3541C9.99763 10.801 9.99643 11.3455 9.99639 12H8.7464C8.19411 12 7.7464 12.4477 7.7464 13C7.7464 13.5523 8.19411 14 8.7464 14H9.99639V19.9884C10.5408 19.9986 11.1945 20 11.9964 20V14H14.7464C15.2987 14 15.7464 13.5523 15.7464 13C15.7464 12.4477 15.2987 12 14.7464 12H11.9964C11.9965 11.3275 11.9984 10.8612 12.0245 10.4967C12.0514 10.1202 12.1001 9.93413 12.155 9.81113C12.2926 9.50247 12.501 9.27669 12.7281 9.14443C12.7934 9.10642 12.9099 9.05887 13.2115 9.03071C13.5295 9.00102 13.9475 9 14.5964 9C15.1487 9 15.5964 8.55229 15.5964 8C15.5964 7.44772 15.1487 7 14.5964 7Z"
    fill="currentcolor"
  />
  <path
    d="M11.026 21.9996C11.0044 21.9995 10.983 21.9995 10.9616 21.9994C10.9731 21.9998 10.9847 22 10.9964 22C11.0063 22 11.0162 21.9999 11.026 21.9996Z"
    fill="currentcolor"
  />
</svg>
