<svg
  xmlns="http://www.w3.org/2000/svg"
  width="24"
  height="24"
  viewBox="0 0 24 24"
  fill="none"
>
  <path
    opacity="0.28"
    d="M3.39987 7.21924C3.04633 8.22958 3.04633 9.48639 3.04633 12C3.04633 14.5136 3.04633 15.7704 3.39987 16.7808C4.03309 18.5904 5.45592 20.0132 7.26557 20.6465C8.27591 21 9.53272 21 12.0463 21C14.5599 21 15.8167 21 16.8271 20.6465C18.6367 20.0132 20.0595 18.5904 20.6928 16.7808C21.0463 15.7704 21.0463 14.5136 21.0463 12C21.0463 9.48639 21.0463 8.22958 20.6928 7.21924C20.0595 5.40959 18.6367 3.98676 16.8271 3.35354C15.8167 3 14.5599 3 12.0463 3C9.53272 3 8.27591 3 7.26557 3.35354C5.45592 3.98676 4.03309 5.40959 3.39987 7.21924Z"
    stroke="currentcolor"
    stroke-width="2"
    stroke-linecap="round"
    stroke-linejoin="round"
  />
  <path
    d="M17.0463 6.99951H17.0563M15.8238 11.4399C15.9416 12.2345 15.8059 13.0459 15.4359 13.7589C15.066 14.4719 14.4807 15.05 13.7632 15.4112C13.0457 15.7723 12.2326 15.898 11.4396 15.7704C10.6466 15.6428 9.914 15.2684 9.34603 14.7004C8.77806 14.1324 8.40364 13.3998 8.27604 12.6068C8.14843 11.8138 8.27413 11.0007 8.63525 10.2832C8.99637 9.5657 9.57454 8.98037 10.2875 8.61042C11.0005 8.24048 11.8119 8.10476 12.6064 8.22259C13.4169 8.34276 14.1672 8.72042 14.7466 9.29977C15.3259 9.87913 15.7036 10.6295 15.8238 11.4399Z"
    stroke="currentcolor"
    stroke-width="2"
    stroke-linecap="round"
    stroke-linejoin="round"
  />
</svg>
