<svg
  xmlns="http://www.w3.org/2000/svg"
  width="24"
  height="24"
  viewBox="0 0 24 24"
  fill="none"
>
  <path
    opacity="0.28"
    d="M14.3028 9H9.69722C8.03464 9 7.11294 9 6.42696 9.23864C6.34325 9.26776 6.26305 9.30043 6.18545 9.33709C5.234 9.78655 4.50083 10.6444 4.16381 11.7025C3.91105 12.4961 3.98851 13.4968 4.14343 15.4983C4.27676 17.2208 4.34342 18.0821 4.65063 18.758C5.06024 19.6593 5.7695 20.3619 6.63775 20.7265C7.28893 21 8.09169 21 9.69722 21H14.3028C15.9083 21 16.7111 21 17.3623 20.7265C18.2305 20.3619 18.9398 19.6593 19.3494 18.758C19.6566 18.0821 19.7232 17.2208 19.8566 15.4983L19.8566 15.4983C20.0115 13.4968 20.089 12.4961 19.8362 11.7025C19.4992 10.6444 18.766 9.78655 17.8146 9.33709C17.7369 9.30043 17.6567 9.26776 17.573 9.23864C16.8871 9 15.9654 9 14.3028 9Z"
    stroke="currentcolor"
    stroke-width="2"
    stroke-linecap="round"
    stroke-linejoin="round"
  />
  <path
    d="M11.9996 17V15M11.9996 15C12.5126 15 12.9285 14.5523 12.9285 14C12.9285 13.4477 12.5126 13 11.9996 13C11.4867 13 11.0708 13.4477 11.0708 14C11.0708 14.5523 11.4867 15 11.9996 15Z"
    stroke="currentcolor"
    stroke-width="2"
    stroke-linecap="round"
    stroke-linejoin="round"
  />
  <path
    d="M6.77052 10.178C6.76063 10.1816 6.75066 10.1851 6.74063 10.1884C6.74558 10.1866 6.75057 10.1849 6.75561 10.1831C6.76054 10.1814 6.7655 10.1797 6.77052 10.178Z"
    fill="currentcolor"
  />
  <path
    d="M5.4375 8.60019C5.54191 8.54045 5.64893 8.48462 5.7584 8.43291C5.86933 8.3805 5.98251 8.3345 6.09847 8.29416C6.53313 8.14295 6.99972 8.07429 7.51018 8.03949C7.92446 5.69207 9.8288 4 11.9999 4C12.5269 4 13.0318 4.09716 13.5019 4.27603C14.0181 4.47245 14.5958 4.21323 14.7922 3.69706C14.9886 3.18088 14.7294 2.60321 14.2132 2.40679C13.5212 2.14346 12.7755 2 11.9999 2C8.43208 2 5.63092 4.98242 5.4375 8.60019Z"
    fill="currentcolor"
  />
</svg>
