<svg
  xmlns="http://www.w3.org/2000/svg"
  width="24"
  height="24"
  viewBox="0 0 24 24"
  fill="none"
>
  <path
    opacity="0.28"
    d="M6.70384 20.5432C7.80647 20.9999 9.20429 20.9999 11.9999 20.9999C14.7956 20.9999 16.1934 20.9999 17.296 20.5432C18.7662 19.9342 19.9343 18.7661 20.5432 17.296C20.9999 16.1934 20.9999 14.7955 20.9999 11.9999C20.9999 9.20423 20.9999 7.8064 20.5432 6.70378C19.9343 5.23361 18.7662 4.06556 17.296 3.4566C16.1934 2.99988 14.7956 2.99988 11.9999 2.99988C9.20429 2.99988 7.80647 2.99988 6.70384 3.4566C5.23367 4.06556 4.06563 5.23361 3.45666 6.70378C2.99994 7.8064 2.99994 9.20423 2.99994 11.9999C2.99994 14.7955 2.99994 16.1934 3.45666 17.296C4.06563 18.7661 5.23367 19.9342 6.70384 20.5432Z"
    stroke="currentcolor"
    stroke-width="2"
    stroke-linecap="round"
    stroke-linejoin="round"
  />
  <path
    d="M9 15L12 12M12 12L15 9M12 12L9 9M12 12L15 15"
    stroke="currentcolor"
    stroke-width="2"
    stroke-linecap="round"
    stroke-linejoin="round"
  />
</svg>
