<svg
  xmlns="http://www.w3.org/2000/svg"
  width="24"
  height="24"
  viewBox="0 0 24 24"
  fill="none"
>
  <path
    opacity="0.28"
    d="M5.1132 6.29189L3.65881 8.89189C3.02425 10.0263 2.70696 10.5935 2.58257 11.1942C2.47248 11.7258 2.47248 12.2742 2.58257 12.8058C2.70696 13.4065 3.02425 13.9737 3.65882 15.1081L5.1132 17.7081C5.78339 18.9062 6.11848 19.5053 6.59509 19.9415C7.01673 20.3274 7.51647 20.6194 8.0609 20.7981C8.33152 20.8869 8.61657 20.9366 8.96837 20.9645C9.41659 21 9.97316 21 10.7463 21H13.2903C14.6501 21 15.33 21 15.9382 20.8031C16.4763 20.629 16.9715 20.3441 17.3913 19.9671C17.8658 19.541 18.2041 18.9552 18.8805 17.7837L19.9103 16L20.4075 15.074C21.0104 13.951 21.3119 13.3895 21.4269 12.7977C21.5288 12.2739 21.5241 11.7352 21.4132 11.2132C21.398 11.142 21.3802 11.0713 21.3594 11C21.2082 10.4811 20.9015 9.93288 20.3544 8.95471L18.8648 6.29189C18.1946 5.09379 17.8596 4.49474 17.3829 4.05853C16.9613 3.67263 16.4616 3.38059 15.9171 3.20194C15.3017 3 14.6117 3 13.2317 3H10.7463C9.3663 3 8.6763 3 8.0609 3.20194C7.51647 3.38059 7.01673 3.67263 6.59509 4.05853C6.11848 4.49474 5.78339 5.09379 5.1132 6.29189Z"
    stroke="currentcolor"
    stroke-width="2"
    stroke-linecap="round"
    stroke-linejoin="round"
  />
  <path
    d="M19.7917 10L18.9737 10C18.0989 9.99998 17.5917 9.99997 17.1539 10.038C12.2944 10.4603 8.43302 14.2885 8.00672 19.1279C7.99174 19.2979 7.98261 19.4783 7.97705 19.6865C8.1046 19.7493 8.23682 19.8033 8.3728 19.8479C8.54592 19.9047 8.7478 19.9439 9.04747 19.9676C9.2981 19.9875 9.59227 19.9952 9.97155 19.9982C9.97515 19.6934 9.9828 19.4873 9.999 19.3034C10.3393 15.4407 13.4247 12.3696 17.3271 12.0305C17.6671 12.0009 18.0812 12 19.0372 12H20.4999C20.4973 11.8059 20.4757 11.612 20.4351 11.4211C20.4253 11.3747 20.4135 11.328 20.3995 11.2799C20.3106 10.9748 20.1441 10.6393 19.7917 10Z"
    fill="currentcolor"
  />
  <path
    d="M8.89787 21.962C8.89508 21.9618 8.89229 21.9616 8.88951 21.9614C8.8858 21.9611 8.88211 21.9608 8.87841 21.9605C8.88488 21.9611 8.89137 21.9616 8.89787 21.962Z"
    fill="currentcolor"
  />
  <path
    d="M22.325 10.7391C22.3232 10.7328 22.3214 10.7265 22.3196 10.7202C22.3176 10.7134 22.3156 10.7067 22.3136 10.6999C22.3177 10.7129 22.3215 10.7259 22.325 10.7391Z"
    fill="currentcolor"
  />
  <path
    d="M7.96143 9C7.96143 8.44772 8.41222 8 8.96831 8C9.52439 8 9.97519 8.44772 9.97519 9C9.97519 9.55228 9.52439 10 8.96831 10C8.41222 10 7.96143 9.55228 7.96143 9Z"
    stroke="currentcolor"
    stroke-width="2"
    stroke-linecap="round"
    stroke-linejoin="round"
  />
</svg>
