<svg
  xmlns="http://www.w3.org/2000/svg"
  width="24"
  height="24"
  viewBox="0 0 24 24"
  fill="none"
>
  <path
    opacity="0.28"
    d="M18 9L18 16C18 19.3137 15.3137 22 12 22C8.68629 22 6 19.3137 6 16L6 6C6 3.79086 7.79086 2 10 2C12.2091 2 14 3.79086 14 6L14 16C14 17.1046 13.1046 18 12 18C10.8954 18 10 17.1046 10 16L10 7"
    stroke="currentcolor"
    stroke-width="2"
    stroke-linecap="round"
    stroke-linejoin="round"
  />
  <path
    d="M6 6C6 3.79086 7.79086 2 10 2C12.2091 2 14 3.79086 14 6L14 16C14 17.1046 13.1046 18 12 18C10.8954 18 10 17.1046 10 16L10 7"
    stroke="currentcolor"
    stroke-width="2"
    stroke-linecap="round"
    stroke-linejoin="round"
  />
</svg>
