<svg
  xmlns="http://www.w3.org/2000/svg"
  width="24"
  height="24"
  viewBox="0 0 24 24"
  fill="none"
>
  <path
    opacity="0.28"
    d="M22 13.3516V11C22 8.19974 22 6.79961 21.455 5.73005C20.9757 4.78924 20.2108 4.02433 19.27 3.54497C18.2004 3 16.8003 3 14 3H10C7.19974 3 5.79961 3 4.73005 3.54497C3.78924 4.02433 3.02433 4.78924 2.54497 5.73005C2 6.79961 2 8.19974 2 11V13C2 15.8003 2 17.2004 2.54497 18.27C3.02433 19.2108 3.78924 19.9757 4.73005 20.455C5.79961 21 7.19974 21 10 21H12.5352"
    stroke="currentcolor"
    stroke-width="2"
    stroke-linecap="round"
    stroke-linejoin="round"
  />
  <path
    d="M7.0957 19.9556C7.37216 19.9719 7.68312 19.9829 8.03582 19.9895C8.36307 19.9956 8.71817 19.9981 9.10767 19.9992C9.79115 15.2531 13.6199 11.5492 18.4262 11.0551C18.9488 11.0013 19.5821 11 21 11C21 10.6445 21 10.3137 20.9989 10.0036C20.9976 9.63491 20.9943 9.302 20.988 9L20.9219 9C19.6027 8.99998 18.8595 8.99996 18.2217 9.06554C12.4184 9.66213 7.81223 14.1896 7.0957 19.9556Z"
    fill="currentcolor"
  />
  <path
    d="M6.5 8.5C6.5 7.94772 6.94772 7.5 7.5 7.5C8.05228 7.5 8.5 7.94772 8.5 8.5C8.5 9.05228 8.05228 9.5 7.5 9.5C6.94772 9.5 6.5 9.05228 6.5 8.5Z"
    stroke="currentcolor"
    stroke-width="2"
    stroke-linecap="round"
    stroke-linejoin="round"
  />
  <path
    d="M19 22V19M19 19V16M19 19H16M19 19H22"
    stroke="currentcolor"
    stroke-width="2"
    stroke-linecap="round"
    stroke-linejoin="round"
  />
</svg>
