<svg
  xmlns="http://www.w3.org/2000/svg"
  width="24"
  height="24"
  viewBox="0 0 24 24"
  fill="none"
>
  <path
    opacity="0.28"
    d="M5.49586 4.31356L10.8835 2.36804C11.5419 2.13025 12.2628 2.13025 12.9213 2.36804L18.3865 4.34159C19.4964 4.74238 20.2683 5.7566 20.3588 6.93316L20.5857 9.88366C20.9187 14.2123 18.6746 18.3318 14.8573 20.3995L13.3686 21.2059C12.4568 21.6998 11.3546 21.6878 10.4538 21.1741L8.93313 20.3071C5.36904 18.2749 3.23207 14.4282 3.38975 10.3285L3.51701 7.01992C3.56397 5.799 4.34667 4.72854 5.49586 4.31356Z"
    stroke="currentcolor"
    stroke-width="2"
    stroke-linecap="round"
    stroke-linejoin="round"
  />
  <path
    d="M3.39001 10.3285L3.51727 7.01992C3.56423 5.799 4.34693 4.72854 5.49612 4.31356L10.8837 2.36804C11.5422 2.13025 12.2631 2.13025 12.9216 2.36804L18.3868 4.34159C19.4967 4.74238 20.2685 5.7566 20.359 6.93316L20.586 9.88366"
    stroke="currentcolor"
    stroke-width="2"
    stroke-linecap="round"
    stroke-linejoin="round"
  />
</svg>
