<svg
  xmlns="http://www.w3.org/2000/svg"
  width="24"
  height="24"
  viewBox="0 0 24 24"
  fill="none"
>
  <path
    opacity="0.28"
    d="M9 3.01105C9.57703 3 10.2365 3 11 3H13C15.8003 3 17.2004 3 18.27 3.54497C19.2108 4.02433 19.9757 4.78924 20.455 5.73005C21 6.79961 21 8.19974 21 11V13C21 15.8003 21 17.2004 20.455 18.27C19.9757 19.2108 19.2108 19.9757 18.27 20.455C17.2004 21 15.8003 21 13 21H11C10.2365 21 9.57703 21 9 20.989"
    stroke="currentcolor"
    stroke-width="2"
    stroke-linecap="round"
    stroke-linejoin="round"
  />
  <path
    d="M6 7.99994H6.01M6 11.9999H6.01M6 15.9999H6.01M5.73005 20.455C4.78924 19.9756 4.02433 19.2107 3.54497 18.2699C3 17.2003 3 15.8002 3 12.9999V10.9999C3 8.19968 3 6.79955 3.54497 5.72999C4.02433 4.78918 4.78924 4.02427 5.73005 3.54491C6.50797 3.14853 7.46078 3.04046 9 3.01099V20.9889C7.46078 20.9594 6.50797 20.8513 5.73005 20.455Z"
    stroke="currentcolor"
    stroke-width="2"
    stroke-linecap="round"
    stroke-linejoin="round"
  />
</svg>
