<svg
  xmlns="http://www.w3.org/2000/svg"
  width="24"
  height="24"
  viewBox="0 0 24 24"
  fill="none"
>
  <path
    opacity="0.28"
    d="M12 2C6.47715 2 2 6.47715 2 12C2 17.5228 6.47715 22 12 22C17.5228 22 22 17.5228 22 12C22 6.47715 17.5228 2 12 2Z"
    stroke="currentcolor"
    stroke-width="2"
    stroke-linecap="round"
    stroke-linejoin="round"
  />
  <path
    d="M19.386 17.1441C18.5974 15.8494 17.1344 15 15.5 15H8.49998C6.86557 15 5.40255 15.8494 4.61401 17.1441C5.03311 17.7447 5.52359 18.2918 6.07317 18.7731C6.33765 17.7814 7.29352 17 8.49998 17H15.5C16.7065 17 17.6623 17.7815 17.9268 18.7731C18.4764 18.2918 18.9669 17.7447 19.386 17.1441Z"
    fill="currentcolor"
  />
  <path
    d="M4.64514 20.1797C4.52841 20.0747 4.41395 19.9672 4.30182 19.8574L4.30586 19.8613C4.41669 19.9698 4.52981 20.076 4.64514 20.1797Z"
    fill="currentcolor"
  />
  <path
    fill-rule="evenodd"
    clip-rule="evenodd"
    d="M12 6C9.79084 6 7.99998 7.79086 7.99998 10C7.99998 12.2091 9.79084 14 12 14C14.2091 14 16 12.2091 16 10C16 7.79086 14.2091 6 12 6ZM9.99998 10C9.99998 8.89543 10.8954 8 12 8C13.1045 8 14 8.89543 14 10C14 11.1046 13.1045 12 12 12C10.8954 12 9.99998 11.1046 9.99998 10Z"
    fill="currentcolor"
  />
</svg>
