<svg
  xmlns="http://www.w3.org/2000/svg"
  width="24"
  height="24"
  viewBox="0 0 24 24"
  fill="none"
>
  <path
    opacity="0.28"
    fill-rule="evenodd"
    clip-rule="evenodd"
    d="M7.39524 2.0001C7.76115 1.99945 8.12933 1.99879 8.47985 2.102C8.786 2.19214 9.07205 2.34007 9.32256 2.53778C9.60939 2.76416 9.82167 3.06499 10.0326 3.36396C10.0494 3.38764 10.0661 3.41132 10.0828 3.43495L20.7973 18.5613C20.9941 18.839 21.1796 19.1008 21.31 19.326C21.4392 19.549 21.6145 19.8969 21.5977 20.3199C21.577 20.8381 21.3276 21.3205 20.9167 21.6368C20.5812 21.8951 20.196 21.9531 19.9393 21.9766C19.6802 22.0003 19.3594 22.0002 19.019 22.0002L17.2905 22.0002C17.2615 22.0002 17.2326 22.0003 17.2036 22.0003C16.8377 22.001 16.4695 22.0016 16.119 21.8984C15.8128 21.8083 15.5268 21.6603 15.2762 21.4626C14.9894 21.2362 14.7771 20.9354 14.5662 20.6364C14.5494 20.6128 14.5327 20.5891 14.516 20.5655L3.82469 5.47184C3.81694 5.46089 3.80919 5.44997 3.80147 5.43906C3.6047 5.16134 3.41924 4.89957 3.28881 4.67443C3.15959 4.45139 2.98427 4.10356 3.00113 3.68052C3.02178 3.16232 3.27122 2.67996 3.68215 2.36358C4.01761 2.1053 4.40279 2.0473 4.65949 2.02383C4.91859 2.00013 5.23941 2.00017 5.57977 2.0002C5.59314 2.00021 5.60653 2.00021 5.61995 2.00021H7.30831C7.33727 2.00021 7.36624 2.00016 7.39524 2.0001ZM7.91495 4.02057C7.87837 4.0098 7.8228 4.00021 7.30831 4.00021H5.61995C5.46901 4.00021 5.34264 4.00035 5.23537 4.00133C5.29657 4.08944 5.3695 4.19265 5.45674 4.31581L16.1481 19.4094C16.4454 19.8293 16.4854 19.8691 16.5153 19.8927C16.5654 19.9322 16.6226 19.9618 16.6839 19.9798C16.7204 19.9906 16.776 20.0002 17.2905 20.0002H18.9789C19.1298 20.0002 19.2562 20.0001 19.3634 19.9991C19.3022 19.911 19.2293 19.8078 19.1421 19.6846L8.45075 4.59098C8.15337 4.17115 8.11342 4.13134 8.08349 4.10772C8.03339 4.06818 7.97618 4.03859 7.91495 4.02057Z"
    fill="currentcolor"
  />
  <path
    d="M14.8538 10.1706L20.5519 3.65852C20.9156 3.24288 20.8735 2.61112 20.4578 2.24744C20.0422 1.88375 19.4104 1.92587 19.0468 2.34151L13.6649 8.49216L14.8538 10.1706Z"
    fill="currentcolor"
  />
  <path
    d="M9.40917 13.3559L10.5981 15.0343L4.80191 21.6585C4.43822 22.0742 3.80646 22.1163 3.39083 21.7526C2.97519 21.3889 2.93307 20.7571 3.29675 20.3415L9.40917 13.3559Z"
    fill="currentcolor"
  />
</svg>
