<svg
  xmlns="http://www.w3.org/2000/svg"
  width="24"
  height="24"
  viewBox="0 0 24 24"
  fill="none"
>
  <path
    d="M14.5964 8C13.3362 8 12.7062 8 12.2249 8.28027C11.8015 8.5268 11.4573 8.92018 11.2416 9.404C10.9964 9.9541 10.9964 10.6741 10.9964 12.1143V21M8.74641 13H14.7464M3 12C3 9.48639 3 8.22958 3.35354 7.21924C3.98676 5.40959 5.40959 3.98676 7.21924 3.35354C8.22958 3 9.48639 3 12 3C14.5136 3 15.7704 3 16.7808 3.35354C18.5904 3.98676 20.0132 5.40959 20.6465 7.21924C21 8.22958 21 9.48639 21 12C21 14.5136 21 15.7704 20.6465 16.7808C20.0132 18.5904 18.5904 20.0132 16.7808 20.6465C15.7704 21 14.5136 21 12 21C9.48639 21 8.22958 21 7.21924 20.6465C5.40959 20.0132 3.98676 18.5904 3.35354 16.7808C3 15.7704 3 14.5136 3 12Z"
    stroke="currentcolor"
    stroke-width="2"
    stroke-linecap="round"
    stroke-linejoin="round"
  />
</svg>
