<svg
  xmlns="http://www.w3.org/2000/svg"
  width="24"
  height="24"
  viewBox="0 0 24 24"
  fill="none"
>
  <path
    d="M16 15H8M6 9H6.01M10 9H10.01M14 9H14.01M18 9H18.01M6 12H6.01M10 12H10.01M14 12H14.01M18 12H18.01M8.4 19H15.6C17.8402 19 18.9603 19 19.816 18.564C20.5686 18.1805 21.1805 17.5686 21.564 16.816C22 15.9603 22 14.8402 22 12.6V11.4C22 9.15979 22 8.03968 21.564 7.18404C21.1805 6.43139 20.5686 5.81947 19.816 5.43597C18.9603 5 17.8402 5 15.6 5H8.4C6.15979 5 5.03968 5 4.18404 5.43597C3.43139 5.81947 2.81947 6.43139 2.43597 7.18404C2 8.03968 2 9.15979 2 11.4V12.6C2 14.8402 2 15.9603 2.43597 16.816C2.81947 17.5686 3.43139 18.1805 4.18404 18.564C5.03968 19 6.15979 19 8.4 19Z"
    stroke="currentcolor"
    stroke-width="2"
    stroke-linecap="round"
    stroke-linejoin="round"
  />
</svg>
