<svg
  xmlns="http://www.w3.org/2000/svg"
  width="24"
  height="24"
  viewBox="0 0 24 24"
  fill="none"
>
  <path
    d="M9.13303 12.0191L11.1398 14.0237C12.1238 12.303 13.4987 10.8499 15.133 9.73381M10.8833 2.36804L5.49574 4.31356C4.34655 4.72854 3.56384 5.799 3.51688 7.01992L3.38963 10.3285C3.23195 14.4282 5.36892 18.2749 8.93301 20.3071L10.4537 21.1741C11.3545 21.6878 12.4567 21.6998 13.3685 21.2059L14.8571 20.3995C18.6745 18.3318 20.9186 14.2123 20.5856 9.88366L20.3587 6.93316C20.2681 5.7566 19.4963 4.74238 18.3864 4.34159L12.9212 2.36804C12.2627 2.13025 11.5418 2.13025 10.8833 2.36804Z"
    stroke="currentcolor"
    stroke-width="2"
    stroke-linecap="round"
    stroke-linejoin="round"
  />
</svg>
