<?xml version="1.0" encoding="UTF-8"?>
<svg xmlns="http://www.w3.org/2000/svg" xmlns:xlink="http://www.w3.org/1999/xlink" viewBox="0 0 398.38 239.01">
  <defs>
    <style>
      .cls-1 {
        clip-path: url(#clippath-6);
      }

      .cls-2 {
        clip-path: url(#clippath-4);
      }

      .cls-3 {
        mask: url(#mask-1);
      }

      .cls-4 {
        fill: #fff;
      }

      .cls-5 {
        mask: url(#mask);
      }

      .cls-6 {
        fill: url(#Sfumatura_senza_nome_6);
      }

      .cls-7 {
        fill: none;
      }

      .cls-8 {
        fill: #b2b2b2;
      }

      .cls-9 {
        clip-path: url(#clippath-1);
      }

      .cls-10 {
        isolation: isolate;
      }

      .cls-11 {
        clip-path: url(#clippath-5);
      }

      .cls-12 {
        clip-path: url(#clippath-3);
      }

      .cls-13, .cls-14 {
        mix-blend-mode: multiply;
      }

      .cls-14 {
        fill: url(#Sfumatura_senza_nome_9);
      }

      .cls-15 {
        fill: url(#Sfumatura_senza_nome_7);
      }

      .cls-16 {
        clip-path: url(#clippath-2);
      }

      .cls-17 {
        clip-path: url(#clippath);
      }

      .cls-18 {
        filter: url(#luminosity-noclip);
      }
    </style>
    <filter id="luminosity-noclip" x="159.37" y="0" width="239.01" height="239.01" color-interpolation-filters="sRGB" filterUnits="userSpaceOnUse">
      <feFlood flood-color="#fff" result="bg"/>
      <feBlend in="SourceGraphic" in2="bg"/>
    </filter>
    <clipPath id="clippath">
      <path class="cls-7" d="M199.19,30.45c-24.44,21.88-39.82,53.67-39.82,89.05s15.38,67.17,39.82,89.05c21.15,18.94,49.07,30.45,79.69,30.45,66,0,119.5-53.5,119.5-119.5S344.87,0,278.87,0C248.26,0,220.33,11.52,199.19,30.45"/>
    </clipPath>
    <filter id="luminosity-noclip-2" x="159.37" y="-8311.27" width="239.01" height="32766" color-interpolation-filters="sRGB" filterUnits="userSpaceOnUse">
      <feFlood flood-color="#fff" result="bg"/>
      <feBlend in="SourceGraphic" in2="bg"/>
    </filter>
    <mask id="mask-1" x="159.37" y="-8311.27" width="239.01" height="32766" maskUnits="userSpaceOnUse"/>
    <linearGradient id="Sfumatura_senza_nome_9" data-name="Sfumatura senza nome 9" x1="-361.38" y1="1344.14" x2="-360.13" y2="1344.14" gradientTransform="translate(69257.5 257126.16) scale(191.21 -191.21)" gradientUnits="userSpaceOnUse">
      <stop offset="0" stop-color="#fff"/>
      <stop offset="1" stop-color="#ededed"/>
    </linearGradient>
    <mask id="mask" x="159.37" y="0" width="239.01" height="239.01" maskUnits="userSpaceOnUse">
      <g class="cls-18">
        <g class="cls-10">
          <g class="cls-17">
            <g class="cls-3">
              <rect class="cls-14" x="159.37" y="0" width="239.01" height="239.01"/>
            </g>
          </g>
        </g>
      </g>
    </mask>
    <clipPath id="clippath-1">
      <rect class="cls-7" x="159.37" y="0" width="239.01" height="239.01"/>
    </clipPath>
    <clipPath id="clippath-2">
      <rect class="cls-7" x="159.37" y="0" width="239.01" height="239.01"/>
    </clipPath>
    <clipPath id="clippath-3">
      <path class="cls-7" d="M159.37,119.5c0,35.38,15.38,67.17,39.82,89.05,24.44-21.88,39.82-53.67,39.82-89.05s-15.38-67.17-39.82-89.05c-24.44,21.88-39.82,53.67-39.82,89.05"/>
    </clipPath>
    <linearGradient id="Sfumatura_senza_nome_7" data-name="Sfumatura senza nome 7" x1="-367.99" y1="1350.24" x2="-366.74" y2="1350.24" gradientTransform="translate(-126090.71 34479.8) rotate(90) scale(93.53 -93.53)" gradientUnits="userSpaceOnUse">
      <stop offset="0" stop-color="#000"/>
      <stop offset="0" stop-color="#020202"/>
      <stop offset=".2" stop-color="#373737"/>
      <stop offset=".38" stop-color="#636363"/>
      <stop offset=".56" stop-color="#858585"/>
      <stop offset=".72" stop-color="#9e9e9e"/>
      <stop offset=".87" stop-color="#acacac"/>
      <stop offset="1" stop-color="#b2b2b2"/>
    </linearGradient>
    <clipPath id="clippath-4">
      <rect class="cls-7" y="0" width="398.38" height="239.01"/>
    </clipPath>
    <clipPath id="clippath-5">
      <rect class="cls-7" x="199.19" y=".96" width="64.37" height="172.23"/>
    </clipPath>
    <clipPath id="clippath-6">
      <path class="cls-7" d="M199.19,30.44c24.44,21.88,39.82,53.67,39.82,89.05,0,19.32-4.58,37.56-12.73,53.71h0c36.66-34.2,37.61-143.92,37.22-172.23-24.55,3.15-46.77,13.76-64.32,29.47"/>
    </clipPath>
    <radialGradient id="Sfumatura_senza_nome_6" data-name="Sfumatura senza nome 6" cx="-359.83" cy="1348.53" fx="-359.83" fy="1348.53" r="1.25" gradientTransform="translate(40111.75 149656.59) scale(110.95 -110.95)" gradientUnits="userSpaceOnUse">
      <stop offset="0" stop-color="#757474"/>
      <stop offset=".03" stop-color="#7f7e7e"/>
      <stop offset=".18" stop-color="#b5b5b5"/>
      <stop offset=".3" stop-color="#ddd"/>
      <stop offset=".41" stop-color="#f6f5f5"/>
      <stop offset=".47" stop-color="#fff"/>
      <stop offset="1" stop-color="#fff"/>
    </radialGradient>
  </defs>
  <g class="cls-10">
    <g id="Livello_1" data-name="Livello 1">
      <g>
        <g>
          <path d="M159.37,119.5c0-35.38,15.38-67.17,39.82-89.05C178.04,11.52,150.12,0,119.5,0,53.5,0,0,53.5,0,119.5s53.5,119.5,119.5,119.5c30.62,0,58.54-11.52,79.69-30.45-24.44-21.88-39.82-53.67-39.82-89.05"/>
          <g class="cls-5">
            <g class="cls-9">
              <g class="cls-16">
                <path class="cls-8" d="M278.87,0C248.25,0,220.33,11.52,199.19,30.45c-24.44,21.88-39.82,53.67-39.82,89.05s15.38,67.17,39.82,89.05c21.15,18.94,49.07,30.45,79.69,30.45,66,0,119.5-53.5,119.5-119.5S344.87,0,278.87,0"/>
              </g>
            </g>
          </g>
        </g>
        <g class="cls-12">
          <rect class="cls-15" x="105.38" y="31.76" width="187.62" height="175.48" transform="translate(-20.39 195.28) rotate(-50)"/>
        </g>
        <g class="cls-2">
          <g class="cls-13">
            <g class="cls-11">
              <g class="cls-1">
                <rect class="cls-6" x="199.19" y=".96" width="64.7" height="172.23"/>
              </g>
            </g>
          </g>
        </g>
        <g>
          <path class="cls-4" d="M344.79,150.66c.2-.52.48-.93.85-1.21.37-.28.83-.43,1.37-.43s1,.15,1.38.44c.37.3.66.71.85,1.23.19.52.29,1.13.29,1.82s-.1,1.31-.29,1.84c-.2.53-.48.94-.85,1.24-.37.3-.83.45-1.37.45s-.99-.15-1.36-.44c-.37-.29-.66-.7-.85-1.23-.2-.53-.29-1.15-.29-1.86s.1-1.33.29-1.85M344.56,162.96v-6.39h.1c.15.33.37.66.65.98.28.33.65.59,1.1.81.45.21.99.32,1.64.32.91,0,1.73-.23,2.46-.7.73-.47,1.31-1.16,1.74-2.08.43-.91.64-2.04.64-3.37s-.22-2.51-.66-3.42c-.44-.91-1.03-1.59-1.76-2.05s-1.54-.68-2.41-.68c-.67,0-1.23.11-1.68.34-.45.23-.81.5-1.09.84-.28.33-.49.66-.63.98h-.15v-2.01h-3.26v16.42h3.31ZM334.98,154.74c-.21.36-.5.64-.84.82-.35.18-.72.28-1.12.28-.63,0-1.13-.21-1.5-.62-.37-.41-.56-.97-.57-1.67v-7.01h-3.31v7.6c0,.93.18,1.73.52,2.4.34.67.81,1.18,1.42,1.55.61.36,1.31.54,2.11.54.9,0,1.66-.21,2.28-.64s1.07-.99,1.34-1.69h.12v2.17h3.18v-11.94h-3.31v6.86c0,.53-.1.98-.32,1.34M318.21,155.67c-.38-.31-.66-.74-.85-1.29-.19-.54-.28-1.16-.28-1.86s.1-1.31.28-1.86c.19-.54.47-.97.85-1.29s.84-.48,1.4-.48,1.01.16,1.38.48c.37.32.65.75.84,1.29.19.54.28,1.16.28,1.86s-.1,1.31-.28,1.86c-.19.54-.47.97-.84,1.29-.37.31-.83.47-1.38.47s-1.02-.16-1.4-.47M322.72,157.94c.88-.52,1.56-1.24,2.03-2.16.48-.92.71-2,.71-3.22s-.24-2.31-.71-3.24c-.48-.92-1.16-1.65-2.03-2.16-.88-.51-1.92-.77-3.13-.77s-2.25.26-3.13.77c-.88.52-1.56,1.24-2.03,2.16-.48.92-.72,2-.72,3.24s.24,2.3.72,3.22c.48.92,1.15,1.65,2.03,2.16.88.51,1.92.77,3.13.77s2.25-.26,3.13-.77M309.12,158.48v-6.76c0-.49.11-.92.33-1.29.22-.37.52-.66.9-.87.38-.21.82-.31,1.3-.31.23,0,.48.02.75.05.28.04.49.08.65.12v-2.94c-.14-.04-.31-.06-.51-.09-.19-.02-.37-.03-.54-.03-.67,0-1.26.19-1.77.57-.51.38-.88.94-1.1,1.68h-.13v-2.08h-3.21v11.94h3.31ZM303.19,147.7c-.11-.79-.35-1.51-.74-2.17-.38-.66-.88-1.22-1.48-1.7-.6-.48-1.29-.85-2.07-1.11-.78-.26-1.62-.39-2.52-.39-1.05,0-2.03.18-2.93.55-.9.37-1.69.9-2.37,1.61-.68.71-1.21,1.57-1.58,2.58-.38,1.01-.56,2.17-.56,3.46,0,1.68.31,3.13.94,4.35.63,1.22,1.51,2.16,2.64,2.82,1.13.66,2.44.99,3.93.99,1.34,0,2.52-.27,3.56-.81,1.04-.54,1.85-1.31,2.44-2.32.59-1,.89-2.2.89-3.6v-2.01h-6.66v2.53h4.11l-.69-.1c0,.68-.14,1.27-.43,1.77-.29.5-.7.88-1.24,1.15-.54.27-1.19.41-1.96.41-.84,0-1.57-.2-2.19-.61-.62-.41-1.09-1-1.43-1.78-.34-.78-.51-1.72-.51-2.83s.17-2.05.51-2.82c.34-.77.82-1.36,1.43-1.76.61-.4,1.33-.61,2.14-.61.44,0,.83.06,1.19.16.36.11.68.26.96.47.28.21.52.45.72.75.2.29.35.63.46,1.01h3.42Z"/>
          <path class="cls-4" d="M327.76,108.02c.54-1.48,1.33-2.61,2.35-3.41,1.02-.8,2.26-1.19,3.72-1.19s2.72.4,3.74,1.22c1.01.81,1.78,1.96,2.31,3.43.53,1.48.79,3.22.79,5.23s-.26,3.77-.79,5.26c-.53,1.49-1.3,2.65-2.32,3.47-1.02.82-2.26,1.23-3.72,1.23s-2.68-.41-3.71-1.23c-1.03-.82-1.82-1.98-2.36-3.47-.54-1.49-.82-3.25-.82-5.26s.27-3.8.82-5.28M327.07,132v-6.06h.36c.5,1.15,1.22,2.23,2.15,3.24s2.09,1.82,3.47,2.43c1.38.62,3.01.92,4.89.92,2.76,0,5.27-.71,7.53-2.14,2.26-1.43,4.07-3.57,5.41-6.43,1.34-2.86,2.01-6.4,2.01-10.64s-.7-8.02-2.09-10.86c-1.39-2.84-3.22-4.94-5.49-6.3-2.26-1.36-4.7-2.05-7.29-2.05-1.96,0-3.65.34-5.05,1.01-1.4.67-2.56,1.54-3.46,2.59-.9,1.05-1.6,2.15-2.08,3.29h-.24v-18.87h-11.9v49.86h11.78ZM300.05,131.21c2.48-1,4.49-2.4,6.02-4.21,1.53-1.81,2.53-3.94,2.98-6.39l-10.93-.32c-.31.83-.77,1.52-1.39,2.09-.62.57-1.35,1-2.22,1.29-.86.29-1.82.44-2.87.44-1.53,0-2.84-.32-3.94-.95-1.1-.63-1.96-1.52-2.56-2.67-.6-1.14-.9-2.48-.9-4v-7.04c.03-1.28.36-2.43.97-3.44.62-1.01,1.45-1.82,2.51-2.41,1.05-.59,2.25-.89,3.58-.89s2.48.28,3.49.84c1.01.56,1.81,1.33,2.4,2.33.58.99.89,2.12.9,3.38h-21.42v6.91h32.5v-2.97c0-3.07-.45-5.79-1.34-8.17-.89-2.38-2.14-4.38-3.75-6-1.61-1.62-3.51-2.85-5.72-3.68-2.21-.83-4.64-1.24-7.3-1.24-3.77,0-7.04.81-9.81,2.42s-4.93,3.87-6.45,6.77c-1.53,2.9-2.29,6.28-2.29,10.14s.76,7.4,2.28,10.28c1.52,2.88,3.69,5.1,6.52,6.65,2.83,1.55,6.2,2.33,10.12,2.33,3.26,0,6.13-.5,8.62-1.5M228.72,132l8.98-30.24h.39l8.98,30.24h11.61l14.48-49.86h-13.29l-7.55,32.74h-.42l-8.59-32.74h-10.86l-8.59,32.67h-.42l-7.52-32.67h-13.32l14.51,49.86h11.59Z"/>
          <path class="cls-4" d="M174.35,123.87c-.89-.65-1.33-1.59-1.33-2.82,0-.81.21-1.51.62-2.11.42-.59,1.01-1.07,1.8-1.45.79-.37,1.74-.65,2.86-.83.55-.08,1.13-.17,1.73-.27.6-.1,1.18-.21,1.75-.34.57-.13,1.09-.27,1.57-.41.48-.15.89-.31,1.23-.49v3.55c0,1.22-.31,2.29-.93,3.2-.62.92-1.44,1.64-2.47,2.15-1.03.52-2.19.78-3.47.78-1.36,0-2.49-.32-3.37-.97M178.73,131.98c1.39-.44,2.6-1.09,3.63-1.97,1.03-.88,1.88-1.95,2.54-3.21h.29v5.21h11.2v-25.42c0-1.98-.41-3.74-1.23-5.28-.82-1.54-1.98-2.84-3.47-3.91-1.49-1.06-3.25-1.87-5.26-2.43s-4.21-.84-6.6-.84c-3.34,0-6.2.52-8.58,1.55-2.38,1.03-4.24,2.44-5.6,4.24-1.35,1.79-2.19,3.83-2.52,6.1l10.98.39c.26-1.2.87-2.14,1.83-2.82.96-.68,2.22-1.02,3.8-1.02,1.46,0,2.62.34,3.48,1.02.86.68,1.29,1.65,1.29,2.9v.12c0,.76-.3,1.35-.89,1.76-.59.41-1.54.73-2.84.95-1.3.22-3.01.43-5.14.62-1.9.16-3.68.47-5.35.94-1.67.46-3.15,1.14-4.43,2.03-1.28.89-2.29,2.05-3.02,3.48-.73,1.43-1.09,3.18-1.09,5.26,0,2.47.53,4.52,1.6,6.15,1.06,1.63,2.51,2.85,4.36,3.65,1.84.8,3.96,1.2,6.34,1.2,1.74,0,3.3-.22,4.69-.66M138.77,121.56c-.03,2.53.47,4.63,1.52,6.3,1.05,1.67,2.56,2.9,4.55,3.69,1.99.79,4.38,1.12,7.17.99,1.43-.07,2.66-.22,3.69-.46,1.03-.24,1.83-.45,2.4-.61l-1.8-8.59c-.26.07-.65.14-1.16.23-.51.09-.99.13-1.45.13-.63,0-1.18-.09-1.63-.28-.45-.19-.8-.5-1.04-.95-.24-.45-.35-1.03-.35-1.77v-34.59h-11.91v35.91ZM133.83,103.37h23.59v-8.76h-23.59v8.76ZM107.02,123.87c-.89-.65-1.33-1.59-1.33-2.82,0-.81.21-1.51.62-2.11.41-.59,1.02-1.07,1.8-1.45.79-.37,1.74-.65,2.86-.83.55-.08,1.13-.17,1.73-.27.6-.1,1.18-.21,1.75-.34.57-.13,1.09-.27,1.57-.41.48-.15.89-.31,1.23-.49v3.55c0,1.22-.31,2.29-.93,3.2-.62.92-1.44,1.64-2.47,2.15-1.03.52-2.19.78-3.47.78-1.36,0-2.49-.32-3.37-.97M111.4,131.98c1.39-.44,2.6-1.09,3.63-1.97,1.03-.88,1.88-1.95,2.55-3.21h.29v5.21h11.2v-25.42c0-1.98-.41-3.74-1.23-5.28-.82-1.54-1.98-2.84-3.47-3.91-1.49-1.06-3.25-1.87-5.26-2.43s-4.21-.84-6.6-.84c-3.34,0-6.2.52-8.58,1.55-2.38,1.03-4.24,2.44-5.6,4.24-1.35,1.79-2.19,3.83-2.52,6.1l10.98.39c.26-1.2.87-2.14,1.83-2.82s2.22-1.02,3.8-1.02c1.46,0,2.62.34,3.48,1.02.86.68,1.29,1.65,1.29,2.9v.12c0,.76-.3,1.35-.89,1.76-.59.41-1.54.73-2.84.95-1.3.22-3.01.43-5.14.62-1.9.16-3.68.47-5.36.94-1.67.46-3.15,1.14-4.43,2.03-1.28.89-2.29,2.05-3.02,3.48-.73,1.43-1.09,3.18-1.09,5.26,0,2.47.53,4.52,1.6,6.15,1.06,1.63,2.52,2.85,4.36,3.65,1.84.8,3.96,1.2,6.34,1.2,1.74,0,3.3-.22,4.69-.66M58.17,92.42h5.74c2.86,0,5.26.47,7.22,1.42,1.95.95,3.44,2.49,4.44,4.62,1.01,2.14,1.51,5,1.51,8.58s-.5,6.45-1.5,8.6c-1,2.15-2.47,3.7-4.41,4.65-1.94.95-4.31,1.42-7.1,1.42h-5.91v-29.31ZM77.67,129.02c3.68-1.99,6.52-4.85,8.51-8.58,1.99-3.73,2.98-8.19,2.98-13.39s-1-9.63-2.99-13.35c-2-3.72-4.83-6.58-8.51-8.57-3.68-1.99-8.05-2.98-13.13-2.98h-18.4v49.86h18.43c5.06,0,9.44-.99,13.12-2.98"/>
          <path class="cls-4" d="M360.71,87.13c0,.29-.07.51-.22.67-.15.16-.36.24-.64.24h-1.91v-1.76h1.91c.19,0,.35.03.48.1.13.07.22.16.29.28.07.13.1.28.1.47M361.74,88.22c.18-.31.28-.68.28-1.09s-.08-.74-.23-1.04c-.15-.3-.39-.53-.7-.69-.31-.16-.69-.24-1.15-.24h-3.29v6.25h1.28v-2.28h1.8l1.12,2.28h1.41l-1.28-2.51c.33-.16.58-.39.75-.69"/>
          <path class="cls-4" d="M359.16,93.58c-2.85,0-5.18-2.32-5.18-5.18s2.32-5.18,5.18-5.18,5.18,2.32,5.18,5.18-2.32,5.18-5.18,5.18M359.16,82.15c-3.45,0-6.26,2.81-6.26,6.26s2.81,6.26,6.26,6.26,6.26-2.81,6.26-6.26-2.81-6.26-6.26-6.26"/>
          <path class="cls-4" d="M192.57,155.85c.31-.14.56-.34.78-.6.21-.26.38-.57.51-.94l2.76-7.73h-1.73l-1.59,5.21h-.07l-1.59-5.21h-1.72l2.5,7.03-.14.37c-.1.26-.22.45-.36.56-.14.11-.31.17-.49.17-.19,0-.4-.03-.63-.1l-.38,1.27c.11.04.26.09.45.12.19.03.39.05.61.05.43,0,.79-.07,1.1-.21M184.82,148.59c.12-.23.3-.41.52-.54.22-.12.47-.19.76-.19.42,0,.75.13.98.39.24.26.36.62.36,1.08v4.14h1.62v-4.39c0-.55-.09-1.02-.29-1.4-.2-.39-.47-.68-.83-.88-.35-.2-.77-.3-1.25-.3-.51,0-.94.11-1.29.34-.35.23-.6.54-.76.92h-.08v-1.17h-1.55v6.89h1.62v-4.04c0-.33.06-.61.19-.85M177.32,152.19c-.22-.15-.33-.38-.33-.68,0-.21.06-.38.17-.51.11-.13.26-.24.45-.31.19-.07.41-.13.65-.16.11-.02.24-.03.38-.05.15-.02.3-.05.44-.07.15-.03.28-.06.41-.1.12-.03.21-.07.26-.12v.81c0,.25-.07.49-.19.7-.13.21-.31.39-.55.52-.24.13-.52.19-.85.19s-.62-.08-.83-.23M178.67,153.46c.27-.1.49-.23.67-.4.18-.17.32-.35.42-.54h.05v.95h1.56v-4.61c0-.46-.08-.84-.25-1.15-.17-.3-.38-.55-.66-.72-.27-.18-.57-.31-.9-.38-.33-.08-.66-.12-.99-.12-.48,0-.92.07-1.32.21-.4.14-.73.35-1.01.64-.28.28-.47.63-.59,1.05l1.52.22c.08-.24.24-.44.47-.62.23-.17.55-.26.95-.26.38,0,.66.09.87.28.2.19.3.45.3.79v.03c0,.16-.06.27-.17.34-.12.07-.3.13-.55.16-.25.03-.58.07-.98.11-.34.04-.66.09-.97.17-.31.08-.59.2-.84.35-.25.15-.44.35-.59.61-.14.25-.22.57-.22.96,0,.45.1.83.3,1.14.2.31.48.54.83.7.35.16.74.24,1.18.24.36,0,.67-.05.94-.15M169.64,148.86c.12-.33.31-.58.55-.77.24-.18.54-.27.88-.27s.66.09.91.28c.24.19.42.45.55.78.12.33.19.71.19,1.14s-.06.81-.19,1.15c-.13.34-.31.6-.55.79-.24.19-.54.29-.9.29s-.64-.09-.88-.28c-.24-.19-.42-.45-.55-.78-.13-.33-.19-.73-.19-1.17s.06-.83.19-1.16M169.48,156.06v-3.67h.07c.09.17.21.35.37.53.16.19.37.35.63.48.26.13.59.2.98.2.54,0,1.03-.14,1.45-.42.43-.28.76-.68,1.01-1.21.25-.53.37-1.17.37-1.93s-.13-1.41-.38-1.94c-.25-.53-.59-.93-1.02-1.2-.43-.27-.91-.4-1.44-.4-.4,0-.73.07-.99.2-.26.14-.47.3-.62.49-.15.19-.27.37-.35.54h-.1v-1.14h-1.6v9.48h1.62ZM158.14,153.47v-4.19c0-.28.06-.53.17-.75.11-.21.27-.38.46-.5.19-.12.4-.18.64-.18.34,0,.62.11.84.32s.32.5.32.85v4.44h1.59v-4.3c0-.39.11-.7.33-.95s.52-.37.92-.37c.33,0,.61.1.83.3.23.2.34.51.34.94v4.37h1.63v-4.63c0-.77-.2-1.35-.6-1.75-.4-.4-.92-.6-1.55-.6-.5,0-.93.11-1.29.34-.36.23-.62.53-.77.92h-.07c-.13-.39-.36-.7-.68-.92-.32-.23-.72-.34-1.18-.34s-.86.11-1.19.33c-.33.22-.57.53-.71.93h-.08v-1.17h-1.55v6.89h1.62ZM150.92,152c-.25-.2-.43-.47-.55-.82-.12-.34-.18-.72-.18-1.14s.06-.8.18-1.15c.12-.34.31-.62.55-.82.25-.2.56-.31.93-.31s.67.1.91.31c.24.2.43.48.55.82.12.34.18.72.18,1.15s-.06.8-.18,1.14c-.12.34-.31.61-.55.82-.24.2-.55.3-.91.3s-.68-.1-.93-.3M153.59,153.16c.49-.3.88-.71,1.15-1.24.27-.53.41-1.15.41-1.87s-.14-1.34-.41-1.87c-.27-.54-.65-.95-1.15-1.25-.49-.3-1.08-.44-1.75-.44s-1.26.15-1.75.44c-.49.3-.88.71-1.15,1.25-.27.54-.41,1.16-.41,1.87s.14,1.34.41,1.87c.27.53.65.95,1.15,1.24.49.3,1.08.44,1.75.44s1.26-.15,1.75-.44M146.94,146.02c-.22-.4-.51-.74-.85-1.01-.35-.28-.74-.49-1.18-.63-.44-.14-.92-.22-1.43-.22-.8,0-1.52.19-2.15.56-.63.37-1.13.91-1.5,1.62-.37.7-.55,1.55-.55,2.54s.18,1.83.55,2.54c.37.71.87,1.25,1.5,1.62.63.37,1.35.56,2.16.56.55,0,1.04-.08,1.49-.24.45-.16.84-.39,1.17-.68.34-.29.61-.63.82-1.01.21-.38.34-.79.41-1.23h-1.68c-.05.26-.14.5-.28.71-.13.21-.3.39-.49.53-.19.14-.41.25-.65.33-.24.07-.5.11-.77.11-.5,0-.94-.12-1.32-.37-.38-.24-.69-.61-.91-1.09-.22-.48-.33-1.07-.33-1.77s.11-1.28.33-1.76c.22-.48.52-.85.91-1.09s.83-.38,1.33-.38c.28,0,.54.04.79.12.24.08.46.19.65.34.19.15.35.33.48.54.13.21.22.46.26.73h1.68c-.07-.51-.21-.97-.44-1.37M131.96,151.67c0,.43.09.79.28,1.08.19.29.45.5.77.64.33.14.69.2,1.1.19.23,0,.42-.03.58-.06.16-.03.28-.07.37-.1l-.27-1.27s-.11.02-.2.04c-.08.02-.18.02-.28.02-.14,0-.26-.02-.37-.06-.11-.04-.2-.12-.27-.24-.07-.11-.1-.28-.1-.5v-6.47h-1.62v6.74ZM130.98,147.84h3.96v-1.26h-3.96v1.26ZM125.61,148.59c.12-.23.3-.41.52-.54.22-.12.47-.19.76-.19.42,0,.75.13.99.39.24.26.36.62.36,1.08v4.14h1.62v-4.39c0-.55-.09-1.02-.29-1.4-.2-.39-.47-.68-.83-.88-.35-.2-.77-.3-1.24-.3-.51,0-.95.11-1.29.34-.35.23-.6.54-.76.92h-.08v-1.17h-1.55v6.89h1.62v-4.04c0-.33.06-.61.19-.85M120.79,153.36c.42-.16.76-.39,1.02-.69.27-.3.45-.65.55-1.05l-1.52-.17c-.07.19-.18.36-.32.49-.14.13-.31.23-.5.3s-.41.1-.64.1c-.35,0-.66-.08-.93-.23-.26-.15-.47-.37-.61-.66-.15-.29-.22-.63-.22-1.03v-.96c0-.31.07-.59.21-.85s.33-.47.59-.63c.25-.16.54-.24.87-.24.31,0,.58.07.82.21.24.14.42.33.55.58.13.24.2.52.2.83h-4.09v1.09h5.65v-.5c0-.61-.08-1.12-.25-1.56-.17-.44-.4-.8-.69-1.08-.29-.28-.63-.49-1-.63-.38-.14-.78-.2-1.21-.2-.66,0-1.23.15-1.72.45-.49.3-.87.72-1.14,1.26-.27.54-.41,1.16-.41,1.87s.14,1.35.4,1.88c.27.53.66.94,1.15,1.23.5.29,1.1.43,1.79.43.54,0,1.01-.08,1.43-.24M106.6,153.47v-4.19c0-.28.06-.53.17-.75.11-.21.27-.38.46-.5.19-.12.4-.18.64-.18.34,0,.62.11.84.32.21.21.32.5.32.85v4.44h1.59v-4.3c0-.39.11-.7.33-.95.22-.24.53-.37.92-.37.33,0,.61.1.84.3.23.2.34.51.34.94v4.37h1.63v-4.63c0-.77-.2-1.35-.6-1.75-.4-.4-.92-.6-1.55-.6-.5,0-.93.11-1.29.34-.36.23-.62.53-.77.92h-.07c-.13-.39-.36-.7-.68-.92-.32-.23-.72-.34-1.18-.34s-.86.11-1.19.33c-.33.22-.57.53-.71.93h-.08v-1.17h-1.55v6.89h1.62ZM101.46,151.45c-.14.23-.33.41-.55.52-.22.12-.46.17-.69.17-.39,0-.7-.13-.94-.39s-.36-.6-.36-1.04v-4.14h-1.62v4.39c0,.55.1,1.02.29,1.41.19.39.46.68.81.88.34.2.74.3,1.19.3.52,0,.95-.12,1.31-.37.35-.24.61-.56.76-.95h.07v1.23h1.57v-6.89h-1.62v3.99c0,.35-.07.64-.22.87M94.51,153.29c.43-.21.76-.5,1.01-.88.25-.38.39-.81.43-1.29h-1.55c-.05.25-.14.46-.26.63-.13.17-.29.31-.48.4-.19.09-.4.14-.64.14-.34,0-.63-.09-.88-.27-.25-.18-.44-.44-.58-.78-.14-.34-.21-.74-.21-1.21s.07-.86.21-1.19c.14-.33.33-.59.58-.76.25-.18.54-.27.88-.27.39,0,.7.11.94.33.23.22.38.5.45.83h1.55c-.04-.5-.18-.93-.44-1.3-.26-.37-.6-.66-1.03-.87-.43-.2-.93-.31-1.49-.31-.67,0-1.25.15-1.75.45-.49.3-.87.72-1.14,1.26-.27.54-.4,1.16-.4,1.86s.13,1.31.4,1.85c.26.53.64.95,1.13,1.25.49.3,1.08.45,1.77.45.58,0,1.08-.1,1.51-.32M84.39,152c-.25-.2-.43-.47-.55-.82-.12-.34-.18-.72-.18-1.14s.06-.8.18-1.15c.12-.34.3-.62.55-.82.25-.2.56-.31.93-.31s.67.1.92.31c.24.2.43.48.55.82.12.34.18.72.18,1.15s-.06.8-.18,1.14c-.12.34-.3.61-.55.82-.25.2-.55.3-.92.3s-.68-.1-.93-.3M87.07,153.16c.49-.3.87-.71,1.15-1.24.27-.53.41-1.15.41-1.87s-.14-1.34-.41-1.87c-.27-.54-.65-.95-1.15-1.25-.49-.3-1.08-.44-1.75-.44s-1.26.15-1.75.44c-.49.3-.87.71-1.15,1.25-.27.54-.41,1.16-.41,1.87s.14,1.34.41,1.87c.27.53.65.95,1.15,1.24.49.3,1.08.44,1.75.44s1.26-.15,1.75-.44M74.9,145.72h1.42c.62,0,1.14.12,1.56.35.42.23.74.58.95,1.04.22.47.32,1.05.32,1.75s-.11,1.29-.32,1.76c-.22.47-.54.82-.96,1.05-.43.23-.96.35-1.6.35h-1.37v-6.31ZM78.74,152.92c.67-.37,1.18-.9,1.53-1.58.35-.69.53-1.51.53-2.47s-.18-1.77-.53-2.46c-.35-.68-.86-1.21-1.51-1.58-.66-.37-1.44-.55-2.35-.55h-3.18v9.19h3.11c.93,0,1.73-.18,2.4-.55M67.01,153.36c.42-.16.76-.39,1.02-.69.27-.3.45-.65.55-1.05l-1.52-.17c-.07.19-.18.36-.32.49-.14.13-.31.23-.5.3-.19.07-.41.1-.64.1-.35,0-.66-.08-.92-.23-.26-.15-.47-.37-.62-.66-.15-.29-.22-.63-.22-1.03v-.96c0-.31.07-.59.21-.85s.33-.47.59-.63c.25-.16.54-.24.87-.24.31,0,.58.07.82.21.23.14.42.33.55.58s.2.52.2.83h-4.09v1.09h5.65v-.5c0-.61-.08-1.12-.25-1.56-.17-.44-.4-.8-.69-1.08-.29-.28-.63-.49-1-.63-.38-.14-.78-.2-1.21-.2-.66,0-1.23.15-1.72.45-.49.3-.87.72-1.14,1.26-.27.54-.41,1.16-.41,1.87s.14,1.35.4,1.88c.27.53.65.94,1.15,1.23.5.29,1.1.43,1.79.43.54,0,1.01-.08,1.43-.24M56.61,148.59c.13-.23.3-.41.53-.54.23-.12.48-.19.77-.19.43,0,.76.13,1,.39.24.26.36.62.36,1.08v4.14h1.62v-4.39c0-.56-.1-1.03-.29-1.41-.2-.39-.47-.68-.83-.88-.36-.2-.77-.3-1.25-.3-.53,0-.96.11-1.3.34-.34.23-.59.53-.75.92h-.08v-3.47h-1.59v9.19h1.62v-4.04c0-.33.06-.61.19-.85M48.96,145.68v7.79h1.65v-7.79h2.84v-1.39h-7.33v1.39h2.84Z"/>
        </g>
      </g>
    </g>
  </g>
</svg>